<svg width="32" height="32" viewBox="0 0 32 32" fill="none" xmlns="http://www.w3.org/2000/svg">
<g id="Layer_1" clip-path="url(#clip0_1903_27157)">
<path id="Vector" d="M4.84815 21.8171C6.74514 26.2244 10.6488 29.1163 14.5017 29.5418C14.5746 29.3739 14.6568 29.2105 14.7478 29.0524C14.8883 28.8074 15.0883 28.6052 15.3279 28.4661C15.5674 28.3269 15.838 28.2558 16.1124 28.2599C16.7331 28.2599 17.3538 28.2599 17.9853 28.2599C18.4286 28.2773 18.8477 28.4745 19.1528 28.8092C19.4579 29.144 19.6247 29.5896 19.6174 30.0507C19.6441 31.0906 18.9699 31.9415 18.0548 31.9777C17.3833 32.0055 16.717 32.011 16.0348 31.9777C15.3231 31.9387 14.8629 31.5105 14.5846 30.8404C14.5586 30.782 14.5215 30.7298 14.4755 30.6867C14.4295 30.6437 14.3756 30.6109 14.317 30.5901C9.5545 29.7559 6.26621 26.9335 4.14982 22.5122C4.07922 22.315 3.96044 22.1403 3.80516 22.0052C3.64988 21.8702 3.46345 21.7795 3.2642 21.742C2.14849 21.4639 1.54113 20.6297 1.26822 19.4952C1.26822 19.4507 1.24949 19.409 1.24146 19.3645C0.385274 19.1504 0.0615288 18.8084 0.0347729 17.863C-0.010712 16.2863 0.0187194 14.7097 0.0347729 13.1358C0.0394859 12.9222 0.0811769 12.7112 0.15785 12.5129C0.331763 12.0235 0.59397 11.6342 1.204 11.7177C1.23879 11.5953 1.26822 11.4813 1.30032 11.3673C1.42004 10.8569 1.67018 10.3895 2.02434 10.0146C2.37849 9.63966 2.8235 9.37112 3.31236 9.23731C3.44959 9.17132 3.55696 9.05276 3.61203 8.90641C4.44221 6.87314 5.68741 5.05152 7.26153 3.56751C9.78728 1.21228 12.7438 -0.0612662 16.1605 -9.13255e-05C20.2087 0.0749869 23.4809 1.87964 26.0869 5.04683C27.0307 6.20165 27.7978 7.50062 28.3612 8.89807C28.3926 8.99509 28.4475 9.0821 28.5206 9.15075C28.5937 9.21941 28.6825 9.2674 28.7786 9.29014C29.7846 9.59601 30.3839 10.3301 30.6863 11.3534C30.7211 11.4702 30.7451 11.587 30.7746 11.6954C31.5398 11.7844 31.9224 12.2071 31.9706 13.1469C32.0187 14.1563 31.9973 15.1685 32 16.1779C32 16.734 32 17.2679 31.9786 17.8101C31.967 18.0524 31.9201 18.2915 31.8395 18.5192C31.6682 19.0086 31.4007 19.3979 30.796 19.3117C30.7398 19.5147 30.6916 19.7038 30.6301 19.8901C30.4509 20.4699 30.095 20.9735 29.6162 21.3246C29.1374 21.6758 28.5616 21.8554 27.9759 21.8365H27.5933C26.8441 21.8365 26.4401 21.4278 26.4374 20.6436C26.4374 17.2234 26.4374 13.8004 26.4374 10.3774C26.4278 10.0406 26.5416 9.71264 26.7558 9.45976C26.7849 9.41496 26.8035 9.36369 26.81 9.31007C26.8165 9.25646 26.8108 9.20201 26.7933 9.15111C24.7518 4.69925 20.4361 1.34854 15.2134 1.74339C11.5826 2.02146 8.7331 3.83168 6.56855 6.82368C6.05752 7.52997 5.67491 8.33359 5.23076 9.09271C5.20479 9.12348 5.1852 9.15948 5.17322 9.19847C5.16125 9.23746 5.15714 9.27859 5.16116 9.31931C5.16518 9.36002 5.17723 9.39943 5.19657 9.43508C5.21592 9.47073 5.24213 9.50185 5.27357 9.5265C5.3862 9.66042 5.4702 9.81766 5.52001 9.98783C5.56983 10.158 5.58432 10.3372 5.56253 10.5136C5.56253 13.2943 5.56253 16.075 5.56253 18.8557C5.56253 19.434 5.56253 20.0124 5.56253 20.5908C5.58921 20.8483 5.53374 21.1078 5.40467 21.3294C5.2756 21.5509 5.08007 21.7223 4.84815 21.8171Z" fill="white"/>
<path id="Vector_2" d="M9.61594 20.0376V19.6094C9.61594 19.4481 9.61594 19.2979 9.61594 19.1561C9.61594 18.9865 9.61594 18.8085 9.61594 18.6278C9.61594 18.447 9.61594 18.2524 9.61594 18.0494C9.61594 17.6601 9.61594 17.2514 9.59721 16.8176C9.57848 16.3838 9.55707 15.9389 9.51159 15.4745C9.4661 15.0101 9.39922 14.5319 9.31092 14.0397C9.22111 13.5338 9.10138 13.0342 8.95239 12.5437L10.0039 12.1877C10.1653 12.7218 10.2975 13.2649 10.3999 13.8144C10.4962 14.3455 10.5711 14.8572 10.6193 15.3494C10.6674 15.8416 10.6996 16.317 10.7129 16.7731C10.7263 17.2291 10.7343 17.6601 10.7343 18.0661C10.7343 18.2691 10.7343 18.4609 10.7343 18.6445C10.7343 18.828 10.7343 19.006 10.7343 19.1756C10.7343 19.3452 10.7343 19.4536 10.7343 19.6233V20.032L9.61594 20.0376Z" fill="white"/>
<path id="Vector_3" d="M16.7458 12.2156C16.7458 12.2462 16.778 12.324 16.8101 12.4519C16.8422 12.5798 16.8823 12.73 16.9198 12.8996C16.9572 13.0692 16.9947 13.2611 17.0241 13.4558C17.0505 13.6399 17.0648 13.8257 17.0669 14.0119C17.0735 14.3246 17.017 14.6353 16.901 14.924C16.8023 15.1694 16.6545 15.3902 16.4676 15.5718C16.2952 15.7411 16.0899 15.8701 15.8656 15.95C15.649 16.0296 15.4211 16.071 15.1913 16.0724C14.9567 16.0743 14.7235 16.0358 14.501 15.9584C14.2986 15.8893 14.1047 15.796 13.9231 15.6803C13.9927 16.331 14.0337 16.9436 14.0462 17.5183C14.0596 18.0911 14.0676 18.6083 14.0676 19.0672V19.4648C14.0676 19.5566 14.0676 19.6567 14.0676 19.7679V20.046H12.9519V18.8419C12.9519 18.4248 12.9519 17.9744 12.9305 17.4905C12.9091 17.0067 12.8796 16.5006 12.8261 15.9723C12.7726 15.4439 12.6897 14.8934 12.5853 14.3233C12.4735 13.7305 12.3297 13.1447 12.1545 12.5687L13.2248 12.2156L13.4495 12.9274L13.495 13.0831C13.5346 13.2091 13.5811 13.3325 13.6341 13.453C13.6979 13.6164 13.7703 13.776 13.8509 13.9313C13.9461 14.1021 14.0592 14.2616 14.188 14.4067C14.3236 14.553 14.4808 14.676 14.6535 14.771C14.8775 14.9084 15.1435 14.9522 15.3974 14.8934C15.4935 14.8762 15.5848 14.8373 15.6649 14.7794C15.7595 14.706 15.8365 14.6108 15.8897 14.5013C15.9609 14.3482 15.9941 14.179 15.986 14.0091C15.9844 13.8816 15.9746 13.7543 15.9565 13.6282C15.9351 13.4891 15.9111 13.3501 15.879 13.2138C15.8468 13.0776 15.8174 12.9525 15.7853 12.8357C15.7532 12.7189 15.7264 12.6271 15.705 12.5576L16.7458 12.2156Z" fill="white"/>
<path id="Vector_4" d="M22.7552 15.1296C22.9585 15.1296 23.1565 15.1213 23.3492 15.1046C23.5418 15.0851 23.7398 15.0573 23.9458 15.0184L24.2134 16.0639C24.0502 16.114 23.887 16.1585 23.7264 16.1946C23.5659 16.2308 23.3947 16.2641 23.2207 16.2864C23.0468 16.3086 22.8569 16.3309 22.6562 16.3448C22.4555 16.3587 22.2335 16.367 21.99 16.367C21.6118 16.3669 21.2342 16.3353 20.8609 16.2725C20.4855 16.21 20.1206 16.092 19.7773 15.9221C19.8014 16.2141 19.8228 16.4783 19.8361 16.723C19.8495 16.9676 19.8629 17.1901 19.8736 17.4042C19.8843 17.6183 19.887 17.8185 19.8896 18.016C19.8923 18.2134 19.8896 18.4136 19.8896 18.6222C19.8896 18.8307 19.8896 19.0476 19.8896 19.2784C19.8896 19.5092 19.8896 19.7622 19.8896 20.0431H18.7632C18.7632 19.4869 18.7632 18.967 18.7632 18.4831C18.7632 17.9993 18.7632 17.5433 18.7311 17.1122C18.699 16.6812 18.6856 16.278 18.6509 15.886C18.6161 15.4939 18.5706 15.1213 18.5144 14.7515C18.4582 14.3816 18.3833 14.0201 18.295 13.6614C18.2067 13.3027 18.105 12.9357 17.9873 12.5658L19.0575 12.2099C19.1405 12.488 19.2154 12.78 19.2796 13.0636C19.3438 13.3472 19.4134 13.642 19.491 13.9451C19.5194 14.0784 19.5644 14.2074 19.6248 14.3288C19.6731 14.4295 19.7343 14.5231 19.8067 14.6069C19.8737 14.6798 19.9503 14.7425 20.0341 14.7932C20.12 14.8444 20.2095 14.8891 20.3017 14.9266C20.2509 14.794 20.2141 14.656 20.192 14.5151C20.164 14.3527 20.1505 14.1879 20.1519 14.0229C20.1488 13.7345 20.2092 13.4492 20.3284 13.1887C20.4444 12.9398 20.6073 12.7176 20.8074 12.5353C20.9937 12.3609 21.2096 12.2242 21.4442 12.1321C21.6676 12.0411 21.9052 11.993 22.1452 11.9902C22.3258 11.9873 22.5059 12.0107 22.6803 12.0598C22.8281 12.1037 22.9714 12.1624 23.1084 12.2349C23.2475 12.3093 23.3824 12.392 23.5124 12.4824C23.6435 12.5714 23.7799 12.6604 23.9351 12.7605L23.4 13.7393L22.9425 13.4612C22.8194 13.3889 22.7097 13.3277 22.6134 13.2833C22.5282 13.24 22.4384 13.2073 22.3458 13.1859C22.2747 13.1694 22.202 13.161 22.1291 13.1609C22.0171 13.1624 21.9061 13.1821 21.8 13.2193C21.687 13.2566 21.5811 13.314 21.487 13.3889C21.3901 13.4637 21.3091 13.5584 21.2488 13.667C21.1841 13.7754 21.1507 13.9009 21.1525 14.0285C21.1431 14.225 21.1937 14.4197 21.297 14.5846C21.3919 14.7267 21.5174 14.8438 21.6636 14.9266C21.8235 15.0144 21.9961 15.0745 22.1746 15.1046C22.3671 15.1306 22.5613 15.139 22.7552 15.1296Z" fill="white"/>
</g>
<defs>
<clipPath id="clip0_1903_27157">
<rect width="32" height="32" fill="white"/>
</clipPath>
</defs>
</svg>
