<svg width="32" height="32" viewBox="0 0 32 32" fill="none" xmlns="http://www.w3.org/2000/svg">
<g clip-path="url(#clip0_1017_24527)">
<path d="M21.7795 32L18.2749 31.036C22.2513 30.2837 25.387 28.4616 27.8892 25.3823C27.2258 28.7963 26.7896 31.1133 23.0606 32.0057L21.7795 32Z" fill="white"/>
<path d="M0 21.8911C0.268811 20.8508 0.5381 19.8115 0.807864 18.7732C1.6529 22.313 3.37015 25.275 6.13977 27.6549C3.46023 27.931 0.649151 25.8872 0.125827 23.3499C0.093277 23.2388 0.051178 23.1306 0 23.0267L0 21.8911Z" fill="white"/>
<path d="M2.12045 16.0386C2.10778 14.2087 2.4579 12.3945 3.15057 10.7008C3.84325 9.0071 4.86473 7.46756 6.15594 6.17121C7.44716 4.87486 8.98249 3.84742 10.6732 3.1483C12.3638 2.44918 14.1763 2.09225 16.0057 2.09816C23.6411 2.07956 29.8752 8.30536 29.8938 15.9828C29.9181 23.5631 23.6726 29.8375 16.0643 29.8647C8.41321 29.8918 2.14476 23.6732 2.12045 16.0386ZM23.9442 22.1886C23.9461 21.134 23.5295 20.1217 22.7858 19.374C22.0421 18.6264 21.0322 18.2045 19.9778 18.2011C19.4488 18.1911 18.9231 18.2867 18.4315 18.4822C17.9398 18.6778 17.4921 18.9694 17.1144 19.3401C16.7367 19.7108 16.4367 20.153 16.232 20.641C16.0272 21.129 15.9217 21.6529 15.9217 22.1822C15.9217 22.7114 16.0272 23.2354 16.232 23.7233C16.4367 24.2113 16.7367 24.6536 17.1144 25.0243C17.4921 25.3949 17.9398 25.6866 18.4315 25.8821C18.9231 26.0777 19.4488 26.1733 19.9778 26.1632C20.5004 26.1655 21.0183 26.064 21.5014 25.8646C21.9845 25.6653 22.4232 25.372 22.7921 25.0017C23.1611 24.6315 23.4529 24.1917 23.6507 23.7078C23.8484 23.2239 23.9482 22.7056 23.9442 22.1829V22.1886ZM8.08435 9.72558C8.077 10.7791 8.48502 11.7931 9.21998 12.5478C9.95493 13.3025 10.9576 13.7371 12.0107 13.7574C14.1297 13.8103 16.0143 11.9696 16.0529 9.81139C16.0901 7.6875 14.2913 5.82963 12.1709 5.80675C9.87452 5.77099 8.12438 7.45008 8.08435 9.72558ZM21.9696 15.6496C22.4977 15.6557 23.0216 15.5564 23.5108 15.3575C24 15.1585 24.4447 14.864 24.8187 14.4911C25.1927 14.1182 25.4886 13.6744 25.689 13.1857C25.8895 12.697 25.9905 12.1732 25.986 11.645C25.9689 9.51391 24.1644 7.72326 22.0196 7.69036C19.8749 7.65747 18.0304 9.49817 18.0361 11.6593C18.0418 13.919 19.7319 15.6296 21.9696 15.6424V15.6496ZM13.9896 20.3322C14.0012 19.8102 13.9093 19.291 13.7193 18.8047C13.5293 18.3183 13.2449 17.8744 12.8826 17.4985C12.5203 17.1227 12.0871 16.8223 11.6081 16.6147C11.1291 16.407 10.6138 16.2963 10.0919 16.2889C7.91276 16.2603 6.04252 18.0567 6.02822 20.192C6.02912 21.2459 6.43921 22.2583 7.172 23.0155C7.90479 23.7728 8.90298 24.2158 9.95602 24.251C10.4782 24.259 10.9968 24.1639 11.4822 23.9712C11.9677 23.7785 12.4103 23.4919 12.785 23.128C13.1596 22.764 13.4588 22.3297 13.6655 21.85C13.8722 21.3703 13.9823 20.8545 13.9896 20.3322ZM17.7072 16.083C17.7103 15.8501 17.6675 15.6188 17.5813 15.4025C17.4951 15.1861 17.3671 14.9889 17.2046 14.822C17.0422 14.6551 16.8484 14.5219 16.6345 14.4299C16.4206 14.3379 16.1906 14.289 15.9578 14.2859C15.725 14.2828 15.4938 14.3256 15.2775 14.4118C15.0612 14.4981 14.864 14.6261 14.6972 14.7886C14.5304 14.9511 14.3972 15.1449 14.3052 15.3589C14.2132 15.5729 14.1643 15.8029 14.1612 16.0358C14.1589 16.2728 14.2034 16.5079 14.2922 16.7277C14.3809 16.9475 14.5121 17.1476 14.6782 17.3166C14.8444 17.4856 15.0422 17.6201 15.2605 17.7125C15.4787 17.8049 15.713 17.8533 15.9499 17.855C16.8808 17.8622 17.7015 17.0341 17.7072 16.083Z" fill="white"/>
<path d="M31.0992 13.6401C30.0182 9.32797 28.8415 7.2713 25.5514 4.16913C28.7714 4.63824 31.4753 5.45634 31.97 9.09056C32.0264 9.60896 31.9945 10.1332 31.8756 10.6409C31.6583 11.6492 31.3623 12.6418 31.0992 13.6401Z" fill="white"/>
<path d="M13.4921 0.835314C9.86597 1.55758 6.81182 3.27529 4.33246 6.09284C4.57553 2.28843 6.84041 -0.759394 10.9598 0.167396C11.8106 0.359047 12.6485 0.610768 13.4921 0.835314Z" fill="white"/>
<path d="M23.9442 22.1829C23.9474 22.7056 23.8469 23.2238 23.6484 23.7074C23.45 24.191 23.1576 24.6304 22.7881 25.0001C22.4186 25.3698 21.9795 25.6624 21.4961 25.8611C21.0127 26.0598 20.4947 26.1606 19.9721 26.1575C19.4431 26.1675 18.9174 26.072 18.4257 25.8764C17.9341 25.6809 17.4863 25.3892 17.1087 25.0186C16.731 24.6479 16.431 24.2056 16.2262 23.7176C16.0214 23.2296 15.916 22.7057 15.916 22.1765C15.916 21.6472 16.0214 21.1233 16.2262 20.6353C16.431 20.1473 16.731 19.705 17.1087 19.3344C17.4863 18.9637 17.9341 18.6721 18.4257 18.4765C18.9174 18.2809 19.4431 18.1854 19.9721 18.1954C20.4947 18.1964 21.0119 18.3002 21.4943 18.5011C21.9768 18.702 22.4149 18.996 22.7838 19.3663C23.1526 19.7366 23.4449 20.1759 23.644 20.6591C23.8432 21.1424 23.9452 21.6602 23.9442 22.1829Z" fill="#254A72"/>
<path d="M8.08439 9.7256C8.12442 7.45725 9.87456 5.77816 12.1666 5.8082C14.2871 5.8368 16.0858 7.69467 16.0486 9.81285C16.0143 11.9696 14.1255 13.8103 12.0107 13.7574C10.9577 13.7371 9.95498 13.3025 9.22002 12.5478C8.48506 11.7931 8.07704 10.7791 8.08439 9.7256Z" fill="#254A72"/>
<path d="M21.9696 15.6424C19.7319 15.6296 18.0418 13.919 18.0361 11.6593C18.0304 9.49817 19.8749 7.66319 22.0196 7.69036C24.1644 7.71754 25.9646 9.51391 25.9818 11.6378C25.9862 12.1656 25.8853 12.6891 25.6851 13.1775C25.485 13.6659 25.1895 14.1095 24.8159 14.4824C24.4423 14.8552 23.9982 15.1499 23.5095 15.3491C23.0208 15.5482 22.4973 15.648 21.9696 15.6424Z" fill="#254A72"/>
<path d="M13.9897 20.3322C13.9824 20.8545 13.8722 21.3703 13.6655 21.85C13.4588 22.3297 13.1596 22.764 12.785 23.128C12.4104 23.4919 11.9677 23.7785 11.4823 23.9712C10.9969 24.1639 10.4782 24.259 9.95605 24.251C8.90302 24.2158 7.90483 23.7728 7.17204 23.0155C6.43925 22.2583 6.02915 21.2459 6.02826 20.192C6.04256 18.0567 7.9128 16.2603 10.0919 16.2889C10.6139 16.2963 11.1292 16.407 11.6082 16.6147C12.0871 16.8223 12.5203 17.1227 12.8826 17.4985C13.245 17.8744 13.5294 18.3183 13.7194 18.8047C13.9094 19.291 14.0012 19.8101 13.9897 20.3322Z" fill="#254A72"/>
<path d="M17.7072 16.0829C17.7072 17.0341 16.8808 17.8622 15.9499 17.855C15.7125 17.8541 15.4776 17.8062 15.2587 17.7141C15.0398 17.6221 14.8413 17.4877 14.6745 17.3186C14.5078 17.1495 14.3761 16.9492 14.287 16.729C14.1979 16.5088 14.1532 16.2732 14.1555 16.0358C14.1617 15.5654 14.3545 15.1168 14.6915 14.7886C15.0284 14.4604 15.4818 14.2796 15.9521 14.2859C16.4223 14.2921 16.8708 14.485 17.1989 14.822C17.527 15.159 17.7078 15.6126 17.7015 16.0829H17.7072Z" fill="#254A72"/>
</g>
<defs>
<clipPath id="clip0_1017_24527">
<rect width="32" height="32" fill="white"/>
</clipPath>
</defs>
</svg>
