<svg width="32" height="32" viewBox="0 0 32 32" fill="none" xmlns="http://www.w3.org/2000/svg">
<g id="Layer_1" clip-path="url(#clip0_1903_27698)">
<path id="Vector" d="M21.7795 32L18.2749 31.036C22.2513 30.2837 25.387 28.4616 27.8892 25.3823C27.2258 28.7963 26.7896 31.1133 23.0606 32.0057L21.7795 32Z" fill="#ED145B"/>
<path id="Vector_2" d="M0 21.8913C0.268811 20.8511 0.5381 19.8118 0.807864 18.7734C1.6529 22.3133 3.37015 25.2753 6.13977 27.6552C3.46023 27.9312 0.649151 25.8874 0.125827 23.3502C0.093277 23.239 0.051178 23.1309 0 23.0269L0 21.8913Z" fill="#ED145B"/>
<path id="Vector_3" d="M2.12045 16.0387C2.10778 14.2088 2.4579 12.3945 3.15057 10.7009C3.84325 9.00716 4.86473 7.46762 6.15594 6.17127C7.44716 4.87493 8.98249 3.84748 10.6732 3.14836C12.3638 2.44924 14.1763 2.09231 16.0057 2.09822C23.6411 2.07962 29.8752 8.30542 29.8938 15.9829C29.9181 23.5631 23.6726 29.8376 16.0643 29.8647C8.41321 29.8919 2.14476 23.6733 2.12045 16.0387ZM23.9442 22.1887C23.9461 21.134 23.5295 20.1217 22.7858 19.3741C22.0421 18.6264 21.0322 18.2046 19.9778 18.2012C19.4488 18.1912 18.9231 18.2867 18.4315 18.4823C17.9398 18.6778 17.4921 18.9695 17.1144 19.3402C16.7367 19.7108 16.4367 20.1531 16.232 20.6411C16.0272 21.1291 15.9217 21.653 15.9217 22.1822C15.9217 22.7115 16.0272 23.2354 16.232 23.7234C16.4367 24.2114 16.7367 24.6537 17.1144 25.0243C17.4921 25.395 17.9398 25.6866 18.4315 25.8822C18.9231 26.0778 19.4488 26.1733 19.9778 26.1633C20.5004 26.1656 21.0183 26.0641 21.5014 25.8647C21.9845 25.6653 22.4232 25.372 22.7921 25.0018C23.1611 24.6316 23.4529 24.1918 23.6507 23.7079C23.8484 23.224 23.9482 22.7057 23.9442 22.183V22.1887ZM8.08435 9.72564C8.077 10.7792 8.48502 11.7932 9.21998 12.5479C9.95493 13.3026 10.9576 13.7372 12.0107 13.7575C14.1297 13.8104 16.0143 11.9697 16.0529 9.81145C16.0901 7.68756 14.2913 5.82969 12.1709 5.80681C9.87452 5.77105 8.12438 7.45014 8.08435 9.72564ZM21.9696 15.6497C22.4977 15.6558 23.0216 15.5564 23.5108 15.3575C24 15.1586 24.4447 14.864 24.8187 14.4911C25.1927 14.1182 25.4886 13.6744 25.689 13.1857C25.8895 12.697 25.9905 12.1732 25.986 11.645C25.9689 9.51397 24.1644 7.72332 22.0196 7.69042C19.8749 7.65753 18.0304 9.49823 18.0361 11.6593C18.0418 13.9191 19.7319 15.6296 21.9696 15.6425V15.6497ZM13.9896 20.3322C14.0012 19.8102 13.9093 19.2911 13.7193 18.8047C13.5293 18.3184 13.2449 17.8745 12.8826 17.4986C12.5203 17.1227 12.0871 16.8223 11.6081 16.6147C11.1291 16.4071 10.6138 16.2964 10.0919 16.289C7.91276 16.2604 6.04252 18.0567 6.02822 20.1921C6.02912 21.246 6.43921 22.2583 7.172 23.0156C7.90479 23.7729 8.90298 24.2158 9.95602 24.2511C10.4782 24.259 10.9968 24.1639 11.4822 23.9712C11.9677 23.7785 12.4103 23.492 12.785 23.128C13.1596 22.7641 13.4588 22.3298 13.6655 21.8501C13.8722 21.3704 13.9823 20.8546 13.9896 20.3322ZM17.7072 16.083C17.7103 15.8501 17.6675 15.6189 17.5813 15.4025C17.4951 15.1862 17.3671 14.9889 17.2046 14.8221C17.0422 14.6552 16.8484 14.522 16.6345 14.43C16.4206 14.338 16.1906 14.289 15.9578 14.2859C15.725 14.2828 15.4938 14.3256 15.2775 14.4119C15.0612 14.4982 14.864 14.6262 14.6972 14.7887C14.5304 14.9512 14.3972 15.145 14.3052 15.3589C14.2132 15.5729 14.1643 15.8029 14.1612 16.0358C14.1589 16.2728 14.2034 16.508 14.2922 16.7278C14.3809 16.9475 14.5121 17.1477 14.6782 17.3167C14.8444 17.4856 15.0422 17.6202 15.2605 17.7126C15.4787 17.805 15.713 17.8534 15.9499 17.8551C16.8808 17.8622 17.7015 17.0341 17.7072 16.083Z" fill="#ED145B"/>
<path id="Vector_4" d="M31.0991 13.6399C30.0181 9.32779 28.8414 7.27112 25.5513 4.16895C28.7713 4.63806 31.4751 5.45615 31.9699 9.09037C32.0263 9.60878 31.9944 10.133 31.8755 10.6407C31.6582 11.6491 31.3622 12.6416 31.0991 13.6399Z" fill="#ED145B"/>
<path id="Vector_5" d="M13.4921 0.835497C9.86603 1.55776 6.81188 3.27547 4.33252 6.09303C4.57559 2.28861 6.84047 -0.759211 10.9599 0.167579C11.8106 0.35923 12.6485 0.610951 13.4921 0.835497Z" fill="#ED145B"/>
<path id="Vector_6" d="M23.9443 22.183C23.9475 22.7058 23.847 23.2239 23.6485 23.7075C23.4501 24.1911 23.1576 24.6305 22.7881 25.0002C22.4187 25.3699 21.9795 25.6626 21.4961 25.8612C21.0128 26.0599 20.4947 26.1607 19.9722 26.1576C19.4431 26.1677 18.9174 26.0721 18.4258 25.8765C17.9341 25.681 17.4864 25.3893 17.1087 25.0187C16.7311 24.648 16.4311 24.2057 16.2263 23.7178C16.0215 23.2298 15.916 22.7058 15.916 22.1766C15.916 21.6473 16.0215 21.1234 16.2263 20.6354C16.4311 20.1474 16.7311 19.7052 17.1087 19.3345C17.4864 18.9638 17.9341 18.6722 18.4258 18.4766C18.9174 18.2811 19.4431 18.1855 19.9722 18.1955C20.4947 18.1965 21.012 18.3004 21.4944 18.5013C21.9768 18.7022 22.415 18.9961 22.7838 19.3664C23.1527 19.7367 23.445 20.176 23.6441 20.6593C23.8432 21.1425 23.9452 21.6603 23.9443 22.183Z" fill="white"/>
<path id="Vector_7" d="M8.08457 9.72542C8.12461 7.45707 9.87474 5.77798 12.1668 5.80801C14.2872 5.83662 16.086 7.69449 16.0488 9.81266C16.0145 11.9695 14.1257 13.8102 12.0109 13.7572C10.9578 13.7369 9.95516 13.3024 9.2202 12.5477C8.48525 11.793 8.07723 10.779 8.08457 9.72542Z" fill="white"/>
<path id="Vector_8" d="M21.9697 15.6423C19.7319 15.6295 18.0419 13.9189 18.0361 11.6591C18.0304 9.49805 19.8749 7.66307 22.0197 7.69024C24.1645 7.71741 25.9647 9.51378 25.9818 11.6377C25.9862 12.1655 25.8854 12.689 25.6852 13.1774C25.485 13.6658 25.1895 14.1094 24.816 14.4822C24.4424 14.8551 23.9983 15.1497 23.5096 15.3489C23.0209 15.5481 22.4974 15.6479 21.9697 15.6423Z" fill="white"/>
<path id="Vector_9" d="M13.9897 20.3322C13.9824 20.8545 13.8723 21.3703 13.6656 21.85C13.4589 22.3297 13.1597 22.764 12.7851 23.128C12.4104 23.4919 11.9678 23.7785 11.4823 23.9712C10.9969 24.1639 10.4783 24.259 9.95611 24.251C8.90308 24.2158 7.90489 23.7728 7.1721 23.0155C6.43931 22.2583 6.02921 21.2459 6.02832 20.192C6.04262 18.0567 7.91286 16.2603 10.0919 16.2889C10.6139 16.2963 11.1292 16.407 11.6082 16.6147C12.0872 16.8223 12.5204 17.1227 12.8827 17.4985C13.245 17.8744 13.5294 18.3183 13.7194 18.8047C13.9094 19.291 14.0013 19.8101 13.9897 20.3322Z" fill="white"/>
<path id="Vector_10" d="M17.7071 16.0829C17.7071 17.034 16.8806 17.8621 15.9498 17.8549C15.7124 17.854 15.4775 17.8061 15.2586 17.7141C15.0397 17.622 14.8412 17.4876 14.6744 17.3185C14.5076 17.1495 14.3759 16.9491 14.2869 16.7289C14.1978 16.5088 14.1531 16.2732 14.1554 16.0357C14.1616 15.5653 14.3544 15.1167 14.6913 14.7886C15.0283 14.4604 15.4817 14.2795 15.952 14.2858C16.4222 14.2921 16.8707 14.4849 17.1988 14.8219C17.5268 15.159 17.7076 15.6125 17.7014 16.0829H17.7071Z" fill="white"/>
</g>
<defs>
<clipPath id="clip0_1903_27698">
<rect width="32" height="32" fill="white"/>
</clipPath>
</defs>
</svg>
