<svg width="20" height="10" viewBox="0 0 20 10" fill="none" xmlns="http://www.w3.org/2000/svg">
<path fill-rule="evenodd" clip-rule="evenodd" d="M0.25 4.99985C0.25 4.80093 0.329017 4.61017 0.46967 4.46952C0.610322 4.32886 0.801087 4.24985 1 4.24985L17.19 4.24985L14.72 1.77985C14.6463 1.71118 14.5872 1.62838 14.5462 1.53638C14.5052 1.44438 14.4832 1.34507 14.4814 1.24437C14.4796 1.14366 14.4982 1.04364 14.5359 0.950249C14.5736 0.85686 14.6297 0.772026 14.701 0.700808C14.7722 0.629589 14.857 0.573444 14.9504 0.535723C15.0438 0.498002 15.1438 0.479478 15.2445 0.481255C15.3452 0.483032 15.4445 0.505073 15.5365 0.546065C15.6285 0.587056 15.7113 0.646158 15.78 0.719845L19.53 4.46985C19.6704 4.61047 19.7493 4.8011 19.7493 4.99985C19.7493 5.1986 19.6705 5.38922 19.53 5.52985L15.78 9.27985C15.7113 9.35353 15.6285 9.41264 15.5365 9.45363C15.4445 9.49462 15.3452 9.51666 15.2445 9.51844C15.1438 9.52021 15.0438 9.50169 14.9504 9.46397C14.857 9.42625 14.7722 9.3701 14.701 9.29888C14.6297 9.22767 14.5736 9.14283 14.5359 9.04944C14.4982 8.95606 14.4796 8.85603 14.4814 8.75532C14.4832 8.65462 14.5052 8.55531 14.5462 8.46331C14.5872 8.37131 14.6463 8.28851 14.72 8.21985L17.19 5.74985L1 5.74985C0.801087 5.74985 0.610322 5.67083 0.46967 5.53018C0.329017 5.38952 0.25 5.19876 0.25 4.99985Z" fill="black"/>
</svg>
