<svg width="32" height="32" viewBox="0 0 32 32" fill="none" xmlns="http://www.w3.org/2000/svg">
<g id="Layer_1" clip-path="url(#clip0_1903_27692)">
<path id="Vector" d="M14.821 0H17.2324L18.8297 0.269879C27.2053 1.66297 33.1159 9.88273 31.8206 18.3312C31.4078 21.0742 30.2948 23.6631 28.5899 25.846C26.8851 28.0289 24.6465 29.7315 22.092 30.7881C19.5375 31.8446 16.7541 32.2192 14.0126 31.8753C11.2712 31.5315 8.66508 30.4808 6.44795 28.8257C4.71843 27.5016 3.27352 25.8399 2.20014 23.9405C1.12677 22.0412 0.447109 19.9434 0.202053 17.7735C-0.0872035 15.0953 -0.000170418 12.3939 0.0561451 9.70795C0.104781 7.06827 0.0740637 4.42602 0.0740637 1.7992C0.0460369 1.629 0.0460369 1.45534 0.0740637 1.28514C0.205149 0.981549 0.399575 0.709728 0.644217 0.488028C0.888859 0.266327 1.17802 0.0999066 1.49219 0L2.20125 0C3.52723 0.881606 4.86344 1.73751 6.17406 2.65767C6.56059 2.93012 6.79097 2.93269 7.21077 2.70908C8.4924 1.97744 9.82431 1.33839 11.1964 0.796787C12.3508 0.377831 13.6103 0.257028 14.821 0ZM13.9021 16.5937C13.6819 16.3855 13.5079 16.2288 13.3415 16.0643C12.6017 15.3292 11.8722 14.5863 11.1273 13.859C10.5435 13.2899 9.76086 12.9734 8.94731 12.9774C8.13375 12.9815 7.35421 13.3057 6.77609 13.8804C6.19797 14.4552 5.86738 15.2347 5.85533 16.0515C5.84327 16.8683 6.15071 17.6573 6.71161 18.249C8.24749 19.8297 9.81153 21.3745 11.3679 22.932C13.0573 24.6284 14.6956 24.631 16.403 22.932C19.3519 19.9985 22.2991 17.0564 25.2445 14.1057C26.5654 12.7871 26.6294 10.8492 25.3956 9.58458C24.1617 8.32 22.183 8.31229 20.834 9.6257C20.0558 10.3865 19.2879 11.1576 18.5302 11.939C16.9866 13.4734 15.4584 15.0207 13.9021 16.5937Z" fill="url(#paint0_linear_1903_27692)"/>
<path id="Vector_2" d="M13.9025 16.5939C15.4588 15.0209 16.9742 13.4736 18.5101 11.9314C19.278 11.1569 20.046 10.3858 20.8139 9.61817C22.1629 8.30476 24.1212 8.29191 25.3755 9.57705C26.6298 10.8622 26.5453 12.7796 25.2244 14.0982C22.2909 17.0506 19.3506 19.9987 16.4034 22.9425C14.7037 24.6363 13.0577 24.6338 11.3683 22.9425C9.81191 21.3798 8.24532 19.835 6.712 18.2492C6.42459 17.9581 6.19709 17.6129 6.04251 17.2335C5.88793 16.8541 5.80928 16.4479 5.81106 16.038C5.81467 15.2101 6.14565 14.4176 6.7312 13.8347C7.31675 13.2519 8.1089 12.9265 8.9334 12.9301C9.75789 12.9337 10.5472 13.266 11.1276 13.854C11.8725 14.5814 12.6021 15.3242 13.3419 16.0593C13.5083 16.2289 13.6823 16.3857 13.9025 16.5939Z" fill="white"/>
</g>
<defs>
<linearGradient id="paint0_linear_1903_27692" x1="4" y1="26.5" x2="28" y2="5" gradientUnits="userSpaceOnUse">
<stop stop-color="#2F3176"/>
<stop offset="1" stop-color="#56EFBA"/>
</linearGradient>
<clipPath id="clip0_1903_27692">
<rect width="32" height="32" fill="white"/>
</clipPath>
</defs>
</svg>
