<svg width="28" height="28" viewBox="0 0 28 28" fill="none" xmlns="http://www.w3.org/2000/svg">
<g id="Layer_1">
<path id="Vector" d="M13.1628 2.625H14.8771L16.0126 2.81687C21.9671 3.8073 26.1691 9.65116 25.2483 15.6577C24.9548 17.6077 24.1635 19.4483 22.9515 21.0003C21.7395 22.5522 20.148 23.7627 18.3319 24.5139C16.5158 25.2651 14.537 25.5314 12.588 25.2869C10.6391 25.0424 8.78631 24.2954 7.21009 23.1187C5.98051 22.1773 4.95328 20.9959 4.19019 19.6456C3.42709 18.2952 2.9439 16.8038 2.76969 15.2611C2.56405 13.357 2.62592 11.4365 2.66596 9.5269C2.70053 7.65021 2.6787 5.7717 2.6787 3.90415C2.65877 3.78314 2.65877 3.65968 2.6787 3.53867C2.77189 3.32284 2.91011 3.12958 3.08403 2.97197C3.25796 2.81435 3.46353 2.69603 3.68688 2.625H4.19098C5.13365 3.25178 6.08361 3.86029 7.01536 4.51448C7.29016 4.70818 7.45394 4.71001 7.7524 4.55103C8.66355 4.03087 9.61044 3.57654 10.5859 3.19148C11.4066 2.89362 12.302 2.80773 13.1628 2.625ZM12.5094 14.4224C12.3529 14.2744 12.2292 14.1629 12.1109 14.0459C11.585 13.5233 11.0663 12.9952 10.5367 12.4781C10.1218 12.0735 9.56533 11.8485 8.98695 11.8514C8.40857 11.8542 7.85437 12.0847 7.44337 12.4933C7.03236 12.902 6.79734 13.4561 6.78877 14.0369C6.7802 14.6176 6.99877 15.1785 7.39753 15.5992C8.48943 16.723 9.60135 17.8212 10.7078 18.9286C11.9089 20.1347 13.0736 20.1365 14.2874 18.9286C16.3839 16.843 18.4791 14.7513 20.5731 12.6535C21.5122 11.7161 21.5577 10.3382 20.6805 9.43919C19.8033 8.54013 18.3966 8.53465 17.4376 9.46843C16.8843 10.0093 16.3384 10.5575 15.7997 11.113C14.7023 12.204 13.6159 13.304 12.5094 14.4224Z" fill="white"/>
</g>
</svg>
