<svg width="32" height="32" viewBox="0 0 32 32" fill="none" xmlns="http://www.w3.org/2000/svg">
<g id="Layer_1" clip-path="url(#clip0_1903_27682)">
<path id="Vector" d="M4.84839 21.8173C6.74539 26.2247 10.6491 29.1166 14.5019 29.542C14.5749 29.3741 14.6571 29.2107 14.7481 29.0526C14.8885 28.8077 15.0886 28.6054 15.3281 28.4663C15.5677 28.3272 15.8382 28.2561 16.1126 28.2601C16.7333 28.2601 17.3541 28.2601 17.9855 28.2601C18.4289 28.2775 18.848 28.4747 19.1531 28.8095C19.4582 29.1442 19.6249 29.5899 19.6176 30.0509C19.6444 31.0909 18.9701 31.9418 18.0551 31.9779C17.3835 32.0057 16.7173 32.0113 16.035 31.9779C15.3233 31.939 14.8631 31.5108 14.5848 30.8406C14.5589 30.7823 14.5217 30.73 14.4757 30.687C14.4298 30.644 14.3759 30.6111 14.3173 30.5903C9.55475 29.7561 6.26646 26.9338 4.15007 22.5125C4.07946 22.3153 3.96068 22.1405 3.8054 22.0055C3.65012 21.8704 3.46369 21.7797 3.26445 21.7422C2.14873 21.4642 1.54137 20.63 1.26846 19.4955C1.26846 19.451 1.24973 19.4093 1.24171 19.3648C0.385519 19.1507 0.0617729 18.8086 0.035017 17.8632C-0.0104679 16.2866 0.0189635 14.7099 0.035017 13.1361C0.03973 12.9224 0.081421 12.7114 0.158094 12.5132C0.332007 12.0238 0.594214 11.6345 1.20425 11.7179C1.23903 11.5956 1.26846 11.4816 1.30057 11.3675C1.42028 10.8571 1.67043 10.3897 2.02458 10.0148C2.37873 9.63991 2.82375 9.37136 3.31261 9.23755C3.44984 9.17157 3.55721 9.053 3.61227 8.90665C4.44245 6.87338 5.68765 5.05176 7.26177 3.56776C9.78753 1.21253 12.744 -0.061022 16.1608 0.000152815C20.2089 0.075231 23.4812 1.87989 26.0872 5.04708C27.031 6.2019 27.798 7.50086 28.3614 8.89831C28.3929 8.99534 28.4478 9.08235 28.5209 9.151C28.594 9.21965 28.6828 9.26764 28.7788 9.29038C29.7848 9.59626 30.3842 10.3304 30.6865 11.3536C30.7213 11.4704 30.7454 11.5872 30.7748 11.6957C31.54 11.7846 31.9226 12.2073 31.9708 13.1472C32.019 14.1566 31.9976 15.1687 32.0002 16.1781C32.0002 16.7342 32.0002 17.2681 31.9788 17.8104C31.9672 18.0527 31.9203 18.2918 31.8397 18.5194C31.6685 19.0088 31.4009 19.3981 30.7962 19.3119C30.74 19.5149 30.6919 19.704 30.6303 19.8903C30.4511 20.4702 30.0953 20.9737 29.6165 21.3249C29.1376 21.676 28.5619 21.8557 27.9762 21.8368H27.5935C26.8444 21.8368 26.4404 21.428 26.4377 20.6439C26.4377 17.2236 26.4377 13.8006 26.4377 10.3776C26.4281 10.0409 26.5419 9.71289 26.7561 9.46001C26.7852 9.41521 26.8037 9.36393 26.8102 9.31032C26.8167 9.2567 26.811 9.20225 26.7935 9.15135C24.7521 4.69949 20.4364 1.34878 15.2136 1.74364C11.5828 2.0217 8.73334 3.83192 6.5688 6.82393C6.05776 7.53022 5.67515 8.33383 5.231 9.09296C5.20503 9.12372 5.18544 9.15972 5.17347 9.19871C5.16149 9.2377 5.15738 9.27884 5.1614 9.31955C5.16542 9.36026 5.17748 9.39968 5.19682 9.43533C5.21616 9.47098 5.24237 9.5021 5.27381 9.52674C5.38644 9.66066 5.47044 9.81791 5.52026 9.98807C5.57007 10.1582 5.58456 10.3375 5.56278 10.5139C5.56278 13.2946 5.56278 16.0752 5.56278 18.8559C5.56278 19.4343 5.56278 20.0127 5.56278 20.591C5.58945 20.8486 5.53399 21.108 5.40492 21.3296C5.27585 21.5512 5.08032 21.7225 4.84839 21.8173Z" fill="#4B5563"/>
<path id="Vector_2" d="M9.61569 20.0378V19.6096C9.61569 19.4483 9.61569 19.2982 9.61569 19.1564C9.61569 18.9867 9.61569 18.8088 9.61569 18.628C9.61569 18.4473 9.61569 18.2526 9.61569 18.0497C9.61569 17.6604 9.61569 17.2516 9.59696 16.8178C9.57824 16.384 9.55683 15.9391 9.51135 15.4747C9.46586 15.0104 9.39897 14.5321 9.31068 14.0399C9.22087 13.5341 9.10113 13.0344 8.95215 12.5439L10.0037 12.188C10.1651 12.722 10.2973 13.2651 10.3996 13.8147C10.496 14.3458 10.5709 14.8574 10.619 15.3496C10.6672 15.8418 10.6993 16.3173 10.7127 16.7733C10.7261 17.2294 10.7341 17.6604 10.7341 18.0663C10.7341 18.2693 10.7341 18.4612 10.7341 18.6447C10.7341 18.8282 10.7341 19.0062 10.7341 19.1758C10.7341 19.3454 10.7341 19.4539 10.7341 19.6235V20.0323L9.61569 20.0378Z" fill="#4B5563"/>
<path id="Vector_3" d="M16.7461 12.2153C16.7461 12.2459 16.7782 12.3238 16.8103 12.4517C16.8424 12.5796 16.8825 12.7298 16.92 12.8994C16.9575 13.069 16.9949 13.2609 17.0244 13.4555C17.0507 13.6397 17.065 13.8255 17.0672 14.0116C17.0737 14.3244 17.0172 14.635 16.9013 14.9237C16.8025 15.1691 16.6548 15.3899 16.4678 15.5716C16.2954 15.7409 16.0902 15.8698 15.8658 15.9498C15.6492 16.0294 15.4213 16.0708 15.1916 16.0721C14.957 16.074 14.7237 16.0355 14.5013 15.9581C14.2989 15.8891 14.1049 15.7958 13.9233 15.6801C13.9929 16.3307 14.0339 16.9434 14.0464 17.5181C14.0598 18.0909 14.0678 18.6081 14.0678 19.0669V19.4645C14.0678 19.5563 14.0678 19.6564 14.0678 19.7676V20.0457H12.9521V18.8417C12.9521 18.4246 12.9521 17.9741 12.9307 17.4903C12.9093 17.0064 12.8799 16.5004 12.8264 15.972C12.7728 15.4437 12.6899 14.8931 12.5856 14.3231C12.4737 13.7303 12.3299 13.1445 12.1548 12.5685L13.225 12.2153L13.4498 12.9272L13.4953 13.0829C13.5349 13.2088 13.5813 13.3323 13.6344 13.4527C13.6982 13.6161 13.7705 13.7758 13.8511 13.931C13.9463 14.1019 14.0594 14.2614 14.1882 14.4065C14.3239 14.5528 14.481 14.6757 14.6538 14.7708C14.8778 14.9082 15.1437 14.9519 15.3976 14.8931C15.4937 14.8759 15.5851 14.837 15.6652 14.7791C15.7598 14.7058 15.8367 14.6106 15.8899 14.501C15.9612 14.348 15.9943 14.1787 15.9862 14.0089C15.9847 13.8813 15.9749 13.7541 15.9568 13.6279C15.9354 13.4889 15.9113 13.3498 15.8792 13.2136C15.8471 13.0773 15.8177 12.9522 15.7856 12.8354C15.7534 12.7186 15.7267 12.6269 15.7053 12.5574L16.7461 12.2153Z" fill="#4B5563"/>
<path id="Vector_4" d="M22.7552 15.1294C22.9585 15.1294 23.1565 15.121 23.3492 15.1044C23.5418 15.0849 23.7398 15.0571 23.9458 15.0182L24.2134 16.0637C24.0502 16.1137 23.887 16.1582 23.7264 16.1944C23.5659 16.2305 23.3947 16.2639 23.2207 16.2861C23.0468 16.3084 22.8569 16.3306 22.6562 16.3445C22.4555 16.3584 22.2335 16.3668 21.99 16.3668C21.6118 16.3666 21.2342 16.335 20.8609 16.2722C20.4855 16.2097 20.1206 16.0918 19.7773 15.9219C19.8014 16.2138 19.8228 16.478 19.8361 16.7227C19.8495 16.9674 19.8629 17.1899 19.8736 17.404C19.8843 17.6181 19.887 17.8183 19.8896 18.0157C19.8923 18.2131 19.8896 18.4134 19.8896 18.6219C19.8896 18.8305 19.8896 19.0474 19.8896 19.2781C19.8896 19.5089 19.8896 19.762 19.8896 20.0428H18.7632C18.7632 19.4867 18.7632 18.9667 18.7632 18.4829C18.7632 17.999 18.7632 17.543 18.7311 17.112C18.699 16.681 18.6856 16.2778 18.6509 15.8857C18.6161 15.4936 18.5706 15.121 18.5144 14.7512C18.4582 14.3814 18.3833 14.0199 18.295 13.6612C18.2067 13.3025 18.105 12.9354 17.9873 12.5656L19.0575 12.2097C19.1405 12.4877 19.2154 12.7797 19.2796 13.0633C19.3438 13.347 19.4134 13.6417 19.491 13.9448C19.5194 14.0782 19.5644 14.2072 19.6248 14.3285C19.6731 14.4293 19.7343 14.5228 19.8067 14.6066C19.8737 14.6795 19.9503 14.7422 20.0341 14.7929C20.12 14.8442 20.2095 14.8888 20.3017 14.9264C20.2509 14.7937 20.2141 14.6557 20.192 14.5149C20.164 14.3524 20.1505 14.1877 20.1519 14.0227C20.1488 13.7343 20.2092 13.4489 20.3284 13.1885C20.4444 12.9395 20.6073 12.7173 20.8074 12.535C20.9937 12.3607 21.2096 12.2239 21.4442 12.1318C21.6676 12.0408 21.9052 11.9928 22.1452 11.99C22.3258 11.987 22.5059 12.0104 22.6803 12.0595C22.8281 12.1035 22.9714 12.1621 23.1084 12.2347C23.2475 12.3091 23.3824 12.3917 23.5124 12.4822C23.6435 12.5712 23.7799 12.6601 23.9351 12.7602L23.4 13.739L22.9425 13.461C22.8194 13.3887 22.7097 13.3275 22.6134 13.283C22.5282 13.2397 22.4384 13.2071 22.3458 13.1857C22.2747 13.1691 22.202 13.1607 22.1291 13.1607C22.0171 13.1621 21.9061 13.1818 21.8 13.2191C21.687 13.2564 21.5811 13.3138 21.487 13.3887C21.3901 13.4635 21.3091 13.5581 21.2488 13.6667C21.1841 13.7752 21.1507 13.9006 21.1525 14.0282C21.1431 14.2248 21.1937 14.4194 21.297 14.5844C21.3919 14.7264 21.5174 14.8436 21.6636 14.9264C21.8235 15.0141 21.9961 15.0742 22.1746 15.1044C22.3671 15.1304 22.5613 15.1387 22.7552 15.1294Z" fill="#4B5563"/>
</g>
<defs>
<clipPath id="clip0_1903_27682">
<rect width="32" height="32" fill="white"/>
</clipPath>
</defs>
</svg>
