<svg width="32" height="32" viewBox="0 0 32 32" fill="none" xmlns="http://www.w3.org/2000/svg">
<g id="iran flag">
<path id="Vector" d="M4 19.0682H18.9962C19.738 19.1602 20.4828 19.1041 21.2264 19.1133C21.97 19.1224 22.7257 19.1133 23.4754 19.1133H27.9751C28.0152 19.1742 27.9939 19.2352 27.9939 19.2961C27.9939 20.3322 27.9976 21.3682 27.9939 22.4043C27.9939 22.6804 27.8987 22.9418 27.7956 23.1917C27.7436 23.3218 27.6754 23.4447 27.5924 23.5574C27.5069 23.6689 27.3868 23.7573 27.3383 23.8968C27.1679 23.984 27.0672 24.1656 26.8949 24.2424C26.713 24.3247 26.5383 24.4368 26.3381 24.4862C26.1605 24.5389 25.9773 24.5706 25.7923 24.5806C19.2863 24.5806 12.7804 24.5816 6.27445 24.5837C6.06587 24.5759 5.85934 24.5394 5.66065 24.4752C5.52608 24.4432 5.39607 24.3942 5.27369 24.3295C5.15128 24.2639 5.03497 24.1875 4.92616 24.101C4.71387 23.9182 4.49189 23.7353 4.36998 23.4684C4.33723 23.3952 4.2699 23.338 4.23715 23.2648C4.13232 23.0539 4.06773 22.825 4.0467 22.5902C4.0467 22.556 4.0649 22.5067 4 22.5061V19.0682Z" fill="#C10303"/>
<path id="Vector_2" d="M27.9976 10.1288C27.9912 10.2148 27.9912 10.3012 27.9976 10.3872V13.4643H27.7877C26.7178 13.4643 25.6479 13.4643 24.578 13.4643C24.4355 13.4643 24.2875 13.4265 24.1534 13.5082C24.1431 13.5136 24.1315 13.5165 24.1198 13.5165C24.1081 13.5165 24.0965 13.5136 24.0861 13.5082C24.0091 13.4198 23.909 13.4649 23.8223 13.4649C17.2145 13.4637 10.607 13.4635 4 13.4643V10.1678C4.0649 10.1678 4.04852 10.1172 4.0461 10.0837C4.02972 9.82895 4.13101 9.60955 4.22805 9.38283C4.34803 9.09959 4.52643 8.84513 4.75148 8.63626C4.89042 8.51336 5.04141 8.40494 5.20212 8.31265C5.38498 8.20822 5.58048 8.12793 5.78378 8.07374C5.92674 8.02826 6.07541 8.00343 6.22532 8C8.4743 8.00325 10.7233 8.00325 12.9723 8C17.2442 8 21.5159 8.00223 25.7874 8.0067C26.3333 8.0067 26.8185 8.22367 27.223 8.61249C27.4511 8.83113 27.6416 9.08605 27.7871 9.36699C27.8609 9.52583 27.9131 9.69392 27.9424 9.86673C27.9606 9.95023 28.0121 10.0319 27.9976 10.1288Z" fill="#097218"/>
<path id="Vector_3" d="M15.9523 14.3291L16.3259 14.5784V16.1056C16.2337 16.4329 16.3029 16.7675 16.278 17.0978C16.2622 17.3032 16.2125 17.5061 16.2319 17.714C16.2349 17.7518 16.2319 17.7901 16.2319 17.8474C16.4796 17.6657 16.6874 17.4348 16.8427 17.1691C16.9951 16.9031 17.1066 16.6155 17.1732 16.3159C17.2336 16.0116 17.2257 15.6977 17.1502 15.3969C17.0837 15.1088 16.9767 14.8318 16.8324 14.5741C16.8718 14.5375 16.8985 14.5345 16.9264 14.5595C17.1732 14.785 17.2951 15.0915 17.4504 15.3773C17.4413 15.5669 17.5893 15.7302 17.5438 15.9259C17.6154 16.0867 17.6008 16.2586 17.5875 16.4238C17.5646 16.7937 17.4357 17.1491 17.2163 17.447C17.0566 17.6451 16.8827 17.831 16.6959 18.0035C16.6031 18.0967 16.48 18.1595 16.3605 18.2436C16.4935 18.2901 16.6298 18.327 16.7681 18.3539C16.9247 18.3649 17.0819 18.3664 17.2387 18.3582C17.1969 18.4008 17.1811 18.4307 17.1581 18.4374C16.836 18.5379 16.5042 18.4874 16.1743 18.5014L15.9923 18.7025C15.9448 18.6882 15.9017 18.6622 15.8669 18.6267C15.8322 18.5912 15.8069 18.5475 15.7934 18.4995C15.5629 18.4995 15.3294 18.4953 15.0965 18.4995C14.952 18.4961 14.8116 18.4504 14.6926 18.3679C14.9624 18.3808 15.2319 18.3372 15.4841 18.2399C15.4944 18.1723 15.441 18.1363 15.4004 18.1119C15.1966 17.99 15.0607 17.7993 14.8927 17.6421C14.8452 17.5946 14.8059 17.5397 14.7763 17.4793C14.6926 17.3178 14.581 17.1716 14.5264 16.9918C14.4396 16.709 14.3602 16.4189 14.413 16.1251C14.4487 15.9289 14.4487 15.726 14.5161 15.534C14.572 15.3463 14.6468 15.1647 14.7393 14.9922C14.8406 14.8228 14.9388 14.6399 15.1171 14.5296C15.1283 14.538 15.1378 14.5486 15.1448 14.5607C15.1519 14.5728 15.1565 14.5862 15.1583 14.6001C15.1601 14.6141 15.1591 14.6282 15.1554 14.6418C15.1516 14.6553 15.1452 14.6679 15.1365 14.6789C15.0657 14.8139 15.0017 14.9524 14.9449 15.094C14.9176 15.1647 14.9673 15.2573 14.8842 15.3036C14.8011 15.3499 14.8581 15.4566 14.8151 15.509C14.772 15.5614 14.7817 15.626 14.7805 15.6845C14.7769 15.8491 14.7805 16.0136 14.7805 16.1788C14.7864 16.3714 14.8345 16.5603 14.9212 16.7321C14.9962 16.9148 15.0882 17.0898 15.196 17.2551C15.2489 17.3286 15.308 17.3975 15.3725 17.461C15.4368 17.5269 15.4465 17.6402 15.5368 17.6737C15.6272 17.7073 15.6733 17.7841 15.7764 17.8523C15.734 17.6494 15.8189 17.4653 15.7194 17.2892C15.7091 17.2715 15.7194 17.2429 15.7194 17.2197C15.7546 16.5658 15.6509 15.9155 15.6709 15.2622C15.6782 15.0275 15.6709 14.7923 15.6709 14.5631C15.7079 14.5211 15.7497 14.5485 15.7382 14.5515L15.9523 14.3291Z" fill="#C10303"/>
<path id="Vector_4" d="M14.9275 14.5211C14.7286 14.6814 14.5933 14.8867 14.4611 15.0854C14.3289 15.2841 14.193 15.512 14.1354 15.7485C14.0778 15.985 13.9983 16.2324 14.0335 16.4798C14.0687 16.7273 14.0869 16.9832 14.1827 17.2173C14.2731 17.4385 14.3647 17.6616 14.5066 17.8444C14.4805 17.8968 14.4496 17.9017 14.4223 17.8852C14.1481 17.7213 13.9862 17.4513 13.7952 17.2087C13.7472 16.9875 13.5986 16.7998 13.6005 16.5572C13.6005 16.4579 13.5477 16.3543 13.5616 16.2476C13.5726 16.1654 13.5289 16.0788 13.5901 16.0002C13.6514 15.9216 13.5586 15.8119 13.6544 15.7448C13.6302 15.6565 13.726 15.5949 13.7066 15.5078C13.8582 15.264 14.0099 15.0141 14.2391 14.8374C14.4026 14.7152 14.5799 14.6129 14.7674 14.5327C14.818 14.5111 14.8743 14.507 14.9275 14.5211Z" fill="#C10303"/>
<path id="Vector_5" d="M17.5389 17.8401C17.5801 17.678 17.6741 17.5354 17.7457 17.3879C17.8416 17.1977 17.9005 16.9908 17.9191 16.7784C17.9276 16.6566 17.9798 16.5487 17.9695 16.4219C17.9422 15.9642 17.8342 15.5352 17.5649 15.1567C17.5249 14.98 17.3563 14.8898 17.2817 14.7344C17.2593 14.688 17.2022 14.6594 17.1701 14.6161C17.1379 14.5729 17.0664 14.6161 17.0779 14.5278C17.1076 14.4814 17.1586 14.4906 17.2053 14.5144C17.4909 14.6594 17.7687 14.8191 17.9853 15.0629C18.1769 15.281 18.2837 15.5455 18.388 15.8113C18.3546 15.974 18.4559 16.1221 18.4359 16.2848C18.3752 16.7724 18.2485 17.2282 17.8791 17.5805C17.8003 17.656 17.7226 17.7328 17.6486 17.8139C17.6347 17.8283 17.617 17.8383 17.5975 17.843C17.5781 17.8476 17.5577 17.8466 17.5389 17.8401Z" fill="#C10303"/>
<path id="Vector_6" d="M15.9486 14.359H15.5543C15.333 14.1396 15.333 14.1396 15.3596 13.894C15.4609 13.8574 15.427 13.9689 15.4712 13.9982C15.5155 14.0348 15.5561 14.0756 15.5925 14.1201H15.8273C15.8721 14.0878 15.9455 14.0866 15.9813 14.0232C16.0462 14.0652 16.1166 14.0707 16.1633 14.125H16.3962C16.486 14.0483 16.5605 13.9553 16.6157 13.8507C16.6482 13.9063 16.6629 13.9706 16.6579 14.0349C16.6529 14.0992 16.6285 14.1604 16.5878 14.2103C16.4847 14.3572 16.327 14.3767 16.159 14.3535C16.1089 14.3086 16.0485 14.277 15.9831 14.2615C15.9328 14.2956 15.9631 14.3316 15.9486 14.359Z" fill="#C10303"/>
<path id="Vector_7" d="M14.9172 14.5004C14.9159 14.4957 14.9157 14.4909 14.9164 14.4862C14.9172 14.4815 14.919 14.4769 14.9216 14.473C14.9243 14.469 14.9277 14.4656 14.9318 14.4631C14.9358 14.4606 14.9404 14.4589 14.9451 14.4583C14.9487 14.4583 14.9596 14.4687 14.959 14.4723C14.9584 14.4771 14.9568 14.4816 14.9543 14.4857C14.9518 14.4898 14.9484 14.4933 14.9445 14.4959C14.9405 14.4986 14.936 14.5003 14.9313 14.5011C14.9266 14.5019 14.9218 14.5016 14.9172 14.5004Z" fill="#C10303"/>
<path id="Vector_8" d="M17.5443 17.8444C17.5456 17.849 17.5458 17.8538 17.5451 17.8585C17.5443 17.8632 17.5425 17.8676 17.5399 17.8716C17.5372 17.8755 17.5337 17.8788 17.5297 17.8813C17.5257 17.8837 17.5211 17.8853 17.5164 17.8858C17.5128 17.8858 17.5019 17.8755 17.5025 17.8718C17.5031 17.8671 17.5047 17.8625 17.5072 17.8585C17.5097 17.8544 17.5131 17.851 17.5171 17.8484C17.5211 17.8458 17.5256 17.844 17.5303 17.8434C17.535 17.8427 17.5398 17.843 17.5443 17.8444Z" fill="#C10303"/>
</g>
</svg>
