<svg width="20" height="20" viewBox="0 0 20 20" fill="none" xmlns="http://www.w3.org/2000/svg">
<g id="repeat">
<path id="Vector" d="M17.0312 9.1665H12.9688C12.8444 9.1665 12.7252 9.11712 12.6373 9.02921C12.5494 8.9413 12.5 8.82207 12.5 8.69775C12.5 8.57343 12.5494 8.45421 12.6373 8.3663C12.7252 8.27839 12.8444 8.229 12.9688 8.229H16.5625V4.63525C16.5625 4.51093 16.6119 4.39171 16.6998 4.3038C16.7877 4.21589 16.9069 4.1665 17.0312 4.1665C17.1556 4.1665 17.2748 4.21589 17.3627 4.3038C17.4506 4.39171 17.5 4.51093 17.5 4.63525V8.69775C17.5 8.82207 17.4506 8.9413 17.3627 9.02921C17.2748 9.11712 17.1556 9.1665 17.0312 9.1665Z" fill="#6B7280"/>
<path id="Vector_2" d="M9.99975 17.5C5.86426 17.5 2.5 14.1356 2.5 9.99999C2.5 5.86437 5.86426 2.5 9.99975 2.5C13.5265 2.5 16.6745 4.88375 17.4864 8.16874C17.5011 8.22853 17.5039 8.29064 17.4947 8.35152C17.4854 8.4124 17.4642 8.47086 17.4324 8.52355C17.4005 8.57625 17.3586 8.62216 17.309 8.65865C17.2594 8.69514 17.2031 8.72151 17.1433 8.73624C17.0835 8.75097 17.0214 8.75378 16.9605 8.74451C16.8996 8.73524 16.8412 8.71407 16.7885 8.68221C16.682 8.61786 16.6055 8.51387 16.5758 8.39312C15.8664 5.52187 13.1009 3.4375 9.99975 3.4375C6.38112 3.4375 3.43747 6.38124 3.43747 9.99999C3.43747 13.6187 6.38112 16.5625 9.99975 16.5625C11.7522 16.5625 13.399 15.8794 14.639 14.6394C14.7269 14.5514 14.8462 14.502 14.9705 14.502C15.0949 14.502 15.2141 14.5514 15.3021 14.6394C15.39 14.7273 15.4394 14.8466 15.4394 14.9709C15.4394 15.0953 15.39 15.2145 15.3021 15.3025C14.6075 16.0012 13.7812 16.5552 12.871 16.9324C11.9609 17.3096 10.985 17.5025 9.99975 17.5Z" fill="#6B7280"/>
</g>
</svg>
