<svg width="94" height="94" viewBox="0 0 94 94" fill="none" xmlns="http://www.w3.org/2000/svg">
<path d="M54.0428 19.8957C54.7484 20.8978 55.546 21.8648 56.1426 22.9338C58.4929 27.1361 58.6617 31.477 56.6369 35.8279C55.4514 38.3776 53.4944 40.5083 51.0311 41.9309C50.8465 42.0729 50.6805 42.2367 50.5369 42.4186C50.738 42.5522 50.9238 42.7627 51.1436 42.8061C52.1663 43.0015 53.211 43.1502 54.2456 43.3172C54.4791 43.3539 54.7109 43.3974 54.9444 43.4375C54.9563 43.516 54.9666 43.5961 54.9768 43.6746C54.7194 43.7631 54.4655 43.9268 54.2064 43.9268C52.7321 43.9268 51.2561 43.9034 49.7852 43.83C49.2927 43.8049 49.0097 43.8867 48.7728 44.3461C48.5359 44.8054 48.1456 45.2213 47.7979 45.6822C47.5815 45.4985 47.457 45.4467 47.4213 45.3582C46.8213 43.987 45.7697 43.6997 44.3397 43.9302C43.4023 44.0805 42.4155 43.9619 41.4525 43.9302C41.1231 43.8876 40.7989 43.8131 40.4844 43.708L40.5032 43.4358C41.3792 43.3022 42.2553 43.1674 43.1313 43.0316C43.5236 42.9901 43.9122 42.9198 44.2937 42.8211C44.5323 42.746 44.7283 42.5322 44.9431 42.3802C44.7915 42.2012 44.62 42.0393 44.4318 41.8975C42.3122 40.6779 40.5685 38.9195 39.3851 36.8083C37.0774 32.733 36.8115 28.494 38.7033 24.2132C39.2914 22.877 40.2202 21.6828 41.0247 20.4418C41.1781 20.2063 41.4781 20.061 41.8087 19.9541C41.3383 21.0047 40.7861 22.0269 40.4145 23.1125C39.5984 25.5511 39.4375 28.1547 39.9475 30.6719C40.3785 33.0009 41.3655 35.1969 42.8279 37.0806C43.6443 38.1362 44.6567 39.0464 45.6061 39.9985C45.6878 40.0663 45.7851 40.1136 45.8896 40.1362C45.9942 40.1589 46.1028 40.1564 46.206 40.1287C46.3305 40.0703 46.3901 39.7613 46.3765 39.5659C46.2384 36.2906 46.0356 33.0153 45.947 29.7383C45.8566 26.655 45.8686 23.5668 45.8362 20.4819C45.8362 19.8906 47.1076 18.4877 47.6837 18.4492C48.2138 18.4142 49.6932 19.8105 49.6813 20.375C49.6114 23.7973 49.5466 27.2146 49.4409 30.6285C49.3489 33.6349 49.2092 36.6296 49.1001 39.6293C49.1001 39.7964 49.1785 40.0502 49.2978 40.107C49.3882 40.1326 49.4835 40.1369 49.5759 40.1195C49.6684 40.102 49.7553 40.0634 49.8295 40.0068C52.41 37.7821 54.382 35.1799 55.2716 31.8494C55.7932 29.9036 55.8494 27.9495 55.6943 25.9803C55.5426 24.0779 54.9989 22.2774 53.9098 20.6656C53.8314 20.5506 53.7689 20.426 53.7241 20.2948C53.7152 20.2169 53.7222 20.138 53.7445 20.0627L54.0428 19.8957Z" fill="white"/>
<path d="M37.2402 40.4112C33.969 38.3997 31.2662 33.3508 32.3028 28.2482C33.1295 24.1615 37.3209 19.3271 40.1351 19.3271C33.9061 25.5561 33.0326 32.5579 37.2402 40.4112Z" fill="white"/>
<path d="M58.2691 40.4112C62.546 32.5179 61.5581 25.5398 55.3542 19.3495C57.2602 18.9682 61.7816 23.548 62.8034 26.7037C64.7937 32.8554 61.5338 38.5051 58.2691 40.4112Z" fill="white"/>
<path d="M43.7973 15.8131C44.1712 16.1547 44.3896 16.3659 44.6245 16.5631C45.5542 17.3625 46.1464 17.4277 47.1571 16.6706C47.6352 16.3078 47.9495 16.2621 48.4458 16.6547C49.4565 17.4506 50.0636 17.3678 51.0214 16.4892C51.2166 16.3131 51.4185 16.1371 51.7195 15.8747C51.9577 16.9681 51.3556 17.4999 50.8461 18.0017C50.5354 18.2782 50.1463 18.4353 49.7415 18.4478C49.3367 18.4602 48.9397 18.3273 48.6145 18.0703C48.0438 17.5773 47.655 17.5914 47.0331 18.0298C45.7642 18.926 44.0554 18.1003 43.7246 16.5209C43.6931 16.3695 43.756 16.1969 43.7973 15.8131Z" fill="white"/>
<path d="M62.1884 67.759C62.0602 67.9046 61.9536 68.038 61.8337 68.1606C61.7181 68.2795 61.5935 68.3907 61.4607 68.4932C61.4039 68.5429 61.3312 68.5742 61.2534 68.5825C61.1756 68.5908 61.097 68.5756 61.0294 68.5392C60.923 68.4826 60.7987 68.4615 60.6774 68.4793C60.5561 68.4972 60.4452 68.553 60.3633 68.6373C60.1718 68.7906 59.9736 68.9439 59.7855 69.1094C59.6666 69.2279 59.5139 69.3132 59.3449 69.3555C59.1758 69.3978 58.9973 69.3954 58.8296 69.3486H58.8113C58.7063 69.3108 58.5913 69.303 58.4814 69.3262C58.3715 69.3495 58.2718 69.4027 58.1952 69.4788C58.002 69.6444 57.7905 69.7931 57.5857 69.9464C57.5115 70.0019 57.4337 70.0531 57.3526 70.0997C57.2908 70.1378 57.2199 70.1616 57.146 70.1691C57.072 70.1766 56.9972 70.1675 56.9279 70.1426C56.7231 70.0736 56.5133 70.0215 56.2868 69.9556C56.2702 69.9801 56.2585 70.0015 56.2435 70.0215C55.7073 70.6883 54.9779 71.1083 54.1553 71.401C53.2591 71.7209 52.3152 71.9132 51.3561 71.9713C50.7782 72.0081 50.1987 72.0402 49.6192 72.0372C49.1713 72.0372 48.7233 71.9728 48.2737 71.9375L48.2171 71.9283C47.6093 71.8026 47.3179 71.4685 47.2979 70.9013C47.2902 70.4622 47.3321 70.0235 47.4228 69.5923C47.4271 69.5408 47.4432 69.4908 47.4699 69.4453C47.4965 69.3999 47.5333 69.3602 47.5776 69.3286C47.6078 69.3937 47.6323 69.4608 47.6509 69.5294C47.7558 70.0951 47.934 70.2821 48.5468 70.4032C48.8869 70.4686 49.2312 70.5142 49.5776 70.5396C50.3097 70.5973 51.0451 70.6106 51.779 70.5794C52.8297 70.5514 53.8701 70.3804 54.8664 70.0721C55.4253 69.8881 55.9453 69.6163 56.4034 69.2688C56.4288 69.2517 56.4555 69.2364 56.4833 69.2229C56.6132 69.2903 56.5416 69.4114 56.5932 69.5202C56.7162 69.5096 56.8384 69.4932 56.9596 69.4712C57.3106 69.392 57.6437 69.2565 57.9437 69.0711C57.981 69.0483 58.0166 69.0232 58.0503 68.996C58.0853 68.9767 58.1158 68.9511 58.1399 68.9208C58.164 68.8905 58.1813 68.856 58.1908 68.8195C58.2003 68.7829 58.2017 68.745 58.195 68.7079C58.1883 68.6708 58.1737 68.6354 58.1519 68.6036C58.1267 68.5354 58.075 68.4781 58.0068 68.4428C57.9386 68.4074 57.8586 68.3964 57.7822 68.412C57.7306 68.412 57.6806 68.4273 57.629 68.4304C57.5258 68.4304 57.4758 68.3905 57.5141 68.3031C57.5543 68.2106 57.6105 68.1246 57.6806 68.0487C57.8848 67.857 58.1452 67.7243 58.43 67.6669C58.7149 67.6094 59.0117 67.6297 59.2842 67.7253C59.354 67.745 59.4143 67.7863 59.4549 67.8421C59.4955 67.8979 59.5141 67.9649 59.5074 68.0318C59.4894 68.1539 59.4565 68.2737 59.4091 68.389C59.3715 68.4704 59.3287 68.5498 59.2809 68.6266C59.3425 68.6388 59.3875 68.6603 59.4208 68.6511C59.5518 68.6214 59.677 68.5733 59.7921 68.5085C59.9758 68.371 60.1514 68.2247 60.3184 68.0702C60.4849 67.9307 60.6414 67.782 60.8179 67.6501C60.8803 67.6019 60.9577 67.5729 61.039 67.5674C61.1203 67.5619 61.2014 67.5802 61.2709 67.6195C61.3608 67.6639 61.454 67.7038 61.5623 67.7544C61.6207 67.7088 61.6763 67.6601 61.7288 67.6088C61.8104 67.5107 61.882 67.4034 61.9636 67.3022C62.0768 67.1658 62.1884 67.0278 62.3133 66.9006C62.3606 66.8472 62.4251 66.8089 62.4975 66.7913C62.5699 66.7737 62.6465 66.7776 62.7163 66.8025C62.8495 66.8439 62.991 66.8638 63.1259 66.9037C63.1738 66.9216 63.2272 66.9228 63.276 66.907C63.3248 66.8912 63.3656 66.8595 63.3907 66.8178C63.6338 66.5036 63.8803 66.1924 64.1234 65.8797C64.3258 65.6256 64.5696 65.4017 64.8461 65.216C64.96 65.1327 65.0917 65.0725 65.2326 65.0393C65.3735 65.006 65.5204 65.0004 65.6638 65.0228C65.7817 65.0303 65.892 65.0791 65.972 65.1593C66.0519 65.2394 66.0954 65.3448 66.0934 65.4536C66.1063 65.6426 66.0844 65.8323 66.0284 66.0146C65.757 66.7596 65.3357 67.4126 64.603 67.8632C64.133 68.1654 63.5535 68.287 62.9877 68.202C62.6683 68.1569 62.3811 67.9978 62.1884 67.759ZM63.6871 66.9037C63.7354 66.9174 63.7487 66.9251 63.7604 66.9236C64.3617 66.8856 64.9339 66.6707 65.3923 66.3104C65.4408 66.2717 65.4824 66.2262 65.5155 66.1755C65.5688 66.0912 65.5555 66.0468 65.4673 65.9993C65.3526 65.9263 65.2184 65.8836 65.0793 65.8758C64.9402 65.8679 64.8014 65.8953 64.6779 65.9548C64.25 66.174 63.9702 66.525 63.6905 66.9037H63.6871Z" fill="white"/>
<path d="M38.2485 52.3514C38.2492 52.4306 38.2433 52.5097 38.2307 52.5879C38.1986 52.7007 38.1586 52.8113 38.111 52.9187C37.8506 53.5402 37.5788 54.157 37.3281 54.7834C37.1803 55.1189 37.1064 55.4816 37.1113 55.8475C37.1113 55.9274 37.1113 56.0073 37.1275 56.0872C37.2278 56.7615 37.6128 57.1578 38.3019 57.2424C39.2725 57.3607 40.1412 57.1354 40.8448 56.4307C41.0624 56.2231 41.2122 55.956 41.2751 55.6638C41.298 55.5989 41.2956 55.5279 41.2684 55.4647C41.2412 55.4015 41.1911 55.3506 41.1279 55.3218C41.0018 55.2563 40.8756 55.1876 40.7462 55.1237C40.2609 54.8888 40.1606 54.6651 40.2997 54.1522C40.3816 53.8471 40.5092 53.5557 40.6782 53.2878C40.9868 52.7921 41.3741 52.3487 41.8251 51.9743C41.9146 51.8972 41.9979 51.8133 42.0742 51.7235C42.0873 51.7119 42.0972 51.6971 42.1029 51.6807C42.1086 51.6643 42.11 51.6467 42.107 51.6296C42.1039 51.6125 42.0964 51.5964 42.0853 51.5829C42.0742 51.5694 42.0598 51.559 42.0435 51.5525L41.9642 51.5046C41.9288 51.4841 41.9026 51.4511 41.8908 51.4122C41.8791 51.3734 41.8828 51.3315 41.9012 51.2953C42.0629 50.9501 42.2247 50.6018 42.4075 50.2631C42.511 50.0713 42.6162 50.0426 42.8345 50.1033C43.0557 50.1472 43.2654 50.2353 43.4509 50.3621C43.721 50.5587 43.7841 50.752 43.6434 51.054C43.4937 51.3895 43.2399 51.6693 42.9187 51.8529C42.5951 52.0415 42.257 52.23 41.9335 52.4297C41.609 52.6422 41.3281 52.9133 41.1053 53.2287C40.9791 53.398 40.9937 53.4524 41.17 53.5722C41.2638 53.6345 41.356 53.6984 41.4515 53.7559C41.5627 53.8222 41.6544 53.916 41.7174 54.0282C41.7804 54.1403 41.8125 54.2668 41.8106 54.3951C41.8299 54.7659 41.79 55.1374 41.6925 55.496C41.5002 56.2404 41.1646 56.9413 40.7041 57.5604C40.3768 58.0166 39.9407 58.3859 39.4343 58.6358C39.019 58.8305 38.5549 58.9005 38.0997 58.8371C37.837 58.8065 37.5861 58.7118 37.3698 58.5614C37.1534 58.4111 36.9784 58.2098 36.8606 57.9758C36.6056 57.5031 36.5061 56.9636 36.5759 56.4323C36.6685 55.7417 36.8552 55.0667 37.1308 54.4254C37.3912 53.7767 37.7163 53.1552 38.0382 52.5352C38.0526 52.4883 38.0798 52.4463 38.117 52.4138C38.1541 52.3813 38.1997 52.3597 38.2485 52.3514Z" fill="white"/>
<path d="M54.4606 57.4854C54.4584 56.7435 54.6171 56.0094 54.9268 55.3295C55.2195 54.6377 55.5551 53.9638 55.8739 53.2845C55.9932 53.0324 56.12 52.7839 56.2468 52.5372C56.2859 52.4639 56.3195 52.337 56.4332 52.3871C56.5469 52.4371 56.4891 52.548 56.4779 52.632C56.466 52.6942 56.4447 52.7544 56.4146 52.8107C56.1573 53.3953 55.8962 53.9798 55.6408 54.5662C55.4091 55.073 55.2371 55.603 55.1281 56.1465C55.1002 56.2958 55.0852 56.447 55.0834 56.5987C55.0714 56.8713 55.1515 57.1403 55.3117 57.3657C55.4719 57.5912 55.7037 57.761 55.9727 57.8501C56.2904 57.9673 56.6302 58.0191 56.9701 58.002C58.1857 57.9537 59.09 57.4014 59.7034 56.4039C59.7734 56.283 59.8242 56.1529 59.8544 56.0177C59.9047 55.8068 59.8544 55.7281 59.6381 55.6602C59.5375 55.6263 59.4312 55.6012 59.3286 55.5708C59.2591 55.5517 59.1906 55.529 59.1236 55.5029C58.6668 55.3116 58.4952 55.0256 58.5437 54.5483C58.584 54.1902 58.6861 53.8411 58.8458 53.5151C59.4411 52.2135 60.4328 51.115 61.6908 50.3635C61.8686 50.2602 62.0558 50.1729 62.2502 50.1025C62.4515 50.0292 62.5429 50.1025 62.5093 50.3081C62.4875 50.4445 62.45 50.5782 62.3975 50.7067C62.2819 50.9748 62.1532 51.243 62.0246 51.5022C61.9928 51.5664 61.9527 51.6264 61.9053 51.681C61.812 51.7882 61.7692 51.7989 61.6517 51.7149C61.6074 51.6797 61.5537 51.6571 61.4966 51.6498C61.4395 51.6425 61.3815 51.6509 61.3292 51.6738C61.1361 51.743 60.9491 51.8267 60.7698 51.9241C60.2896 52.222 59.8748 52.607 59.5486 53.0574C59.4933 53.1304 59.4453 53.2082 59.4051 53.2898C59.3813 53.3291 59.3667 53.3727 59.3621 53.4179C59.3575 53.463 59.3631 53.5086 59.3785 53.5515C59.3939 53.5944 59.4187 53.6336 59.4513 53.6665C59.4838 53.6994 59.5234 53.7252 59.5673 53.7421C59.6952 53.8061 59.8272 53.8622 59.9625 53.9101C60.1005 53.9548 60.2203 54.0399 60.3049 54.1535C60.3896 54.2671 60.4348 54.4033 60.4342 54.543C60.4587 54.9991 60.4135 55.4562 60.3 55.8998C60.1515 56.6007 59.8851 57.2739 59.5113 57.893C59.1609 58.4614 58.6778 58.9442 58.1 59.3034C57.5045 59.67 56.7885 59.812 56.0901 59.702C55.2269 59.5805 54.6788 59.0406 54.5091 58.1879C54.4868 58.0932 54.4719 57.997 54.4644 57.9001C54.4551 57.7625 54.4606 57.6248 54.4606 57.4854Z" fill="white"/>
<path d="M17.7541 69.4146C17.751 69.4908 17.7398 69.5666 17.7206 69.6415C17.5889 70.0029 17.3723 70.3453 17.0803 70.6538C16.9098 70.827 16.6933 70.9739 16.4435 71.086C15.7177 71.4128 14.9183 71.6454 14.0816 71.7731C12.6703 72.0077 11.218 72.0868 9.77401 72.0077C9.43735 71.9981 9.10502 71.9495 8.78973 71.8636C8.62542 71.8162 8.46965 71.7545 8.32581 71.68C8.18925 71.6099 8.07935 71.516 8.00628 71.407C7.93321 71.2981 7.89932 71.1776 7.90776 71.0566C7.93053 70.7219 7.99608 70.3895 8.10356 70.0635C8.13002 69.9679 8.16706 69.8723 8.20234 69.778C8.21998 69.7333 8.25702 69.6862 8.32758 69.7027C8.35007 69.7113 8.36975 69.7232 8.38528 69.7377C8.4008 69.7522 8.41181 69.769 8.41754 69.7869C8.43924 69.8589 8.45047 69.9324 8.45105 70.0062C8.45186 70.0978 8.48685 70.1877 8.55235 70.2662C8.61785 70.3447 8.71144 70.409 8.82325 70.4524C9.10887 70.5693 9.42245 70.6463 9.74756 70.6793C10.6079 70.7877 11.4827 70.8245 12.3547 70.7889C13.0232 70.7771 13.6898 70.7319 14.3497 70.6538C15.1371 70.5623 15.9027 70.3906 16.6234 70.1438C17.0047 70.0175 17.3226 69.8092 17.5336 69.5472C17.5795 69.4963 17.6302 69.4477 17.6853 69.4019L17.7541 69.4146Z" fill="white"/>
<path d="M75.9446 69.4184C75.9431 69.4943 75.9335 69.57 75.9158 69.6447C75.7953 70.0077 75.5973 70.3516 75.3303 70.6616C75.1753 70.8343 74.9785 70.9808 74.7513 71.0925C74.0915 71.417 73.3652 71.6476 72.6053 71.7739C71.322 72.0078 70.0016 72.0866 68.6886 72.0078C68.3846 71.9979 68.0846 71.9494 67.8 71.8642C67.651 71.8168 67.5094 71.7558 67.3782 71.6824C67.253 71.6127 67.1521 71.519 67.0848 71.4101C67.0175 71.3012 66.986 71.1806 66.9933 71.0595C67.014 70.7262 67.0736 70.3951 67.1713 70.0705C67.1954 69.9739 67.2274 69.8786 67.2611 69.7845C67.2756 69.74 67.3092 69.6942 67.375 69.7095C67.3952 69.7181 67.4127 69.7301 67.4266 69.7446C67.4404 69.759 67.4502 69.7757 67.4552 69.7934C67.4763 69.8651 67.4871 69.9384 67.4873 70.012C67.4868 70.1037 67.5181 70.1936 67.5778 70.2721C67.6375 70.3506 67.7232 70.4145 67.8257 70.457C68.0852 70.5729 68.3697 70.6496 68.6645 70.6832C69.4474 70.7913 70.2433 70.828 71.0367 70.7925C71.6441 70.7798 72.2497 70.734 72.8491 70.6553C73.5846 70.5608 74.2986 70.3809 74.9679 70.1214C75.2882 69.9987 75.5552 69.8031 75.7345 69.5595C75.78 69.5045 75.8298 69.4518 75.8837 69.4019L75.9446 69.4184Z" fill="white"/>
<path d="M66.5281 54.9028C66.4569 54.9175 66.3868 54.9365 66.318 54.9597C66.2096 55.0058 66.0902 55.0198 65.974 55.0003C65.8579 54.9807 65.7498 54.9283 65.6626 54.8493C65.5847 54.7944 65.5272 54.7155 65.4989 54.6248C65.4707 54.534 65.4733 54.4365 65.5064 54.3474C65.6486 53.8827 65.8642 53.4433 66.1449 53.0459C66.402 52.6878 66.7717 52.6878 67.0473 53.0375C67.1026 53.1094 67.1483 53.1881 67.1834 53.2717C67.2162 53.3615 67.2437 53.4531 67.2658 53.5461C67.314 53.5323 67.3599 53.5114 67.4019 53.4842C67.548 53.3668 67.6861 53.24 67.8153 53.1044C67.9581 52.9455 68.069 52.7598 68.2085 52.6025C68.3069 52.4829 68.4237 52.3796 68.5547 52.2964C68.6231 52.2546 68.6992 52.2266 68.7786 52.2142C68.8579 52.2018 68.9389 52.205 69.017 52.2238C69.0951 52.2426 69.1686 52.2766 69.2335 52.3238C69.2983 52.371 69.3532 52.4305 69.3949 52.4988C69.4419 52.5674 69.4856 52.636 69.531 52.7029C69.5528 52.6945 69.568 52.6945 69.5747 52.6862C69.8267 52.3516 70.0788 52.0287 70.3326 51.7025C70.4448 51.5603 70.5396 51.4053 70.6149 51.2407C70.8124 50.8455 71.0953 50.4987 71.4433 50.2252C71.751 49.9749 72.0899 49.7651 72.4516 49.6012L72.9423 49.3637C72.9816 49.3412 73.0198 49.3166 73.0565 49.2901C73.0313 49.2666 73.0196 49.2499 73.0044 49.2449C72.626 49.1036 72.221 49.0464 71.8181 49.0776C71.7502 49.0828 71.6841 49.1017 71.6237 49.133C71.5633 49.1643 71.51 49.2075 71.4668 49.2599C71.4114 49.3318 71.3514 49.4 71.287 49.4641C71.2344 49.5047 71.1781 49.5405 71.119 49.5711L71.077 49.541C71.0802 49.4755 71.0944 49.4111 71.119 49.3503C71.2425 49.1236 71.3788 48.9041 71.5273 48.6928C71.6178 48.5684 71.7385 48.469 71.8781 48.4037C72.0177 48.3384 72.1717 48.3096 72.3255 48.3197C72.865 48.3418 73.3975 48.4485 73.9035 48.6359C73.9541 48.6463 74.0013 48.669 74.041 48.7019C74.0807 48.7348 74.1116 48.7769 74.131 48.8246C74.1505 48.8722 74.1578 48.9239 74.1524 48.975C74.147 49.0262 74.129 49.0752 74.1001 49.1177C74.0385 49.2379 73.9573 49.347 73.8598 49.4406C73.6741 49.6135 73.4567 49.7493 73.2195 49.8405C72.7826 50.0245 72.3474 50.2102 71.9172 50.4093C71.7256 50.4979 71.5458 50.6184 71.3375 50.7439L71.4921 50.9112C71.6265 51.0601 71.7643 51.2073 71.8937 51.3595C71.9725 51.4476 72.0217 51.558 72.0344 51.6753C72.047 51.7926 72.0225 51.9109 71.9643 52.0136C71.9171 52.107 71.8608 52.1956 71.7962 52.278C71.7331 52.3778 71.6383 52.4538 71.5269 52.4938C71.4154 52.5338 71.2937 52.5356 71.1812 52.4988C71.1324 52.4854 71.0787 52.4804 71.0299 52.4653C70.8953 52.4246 70.7526 52.4186 70.615 52.4479C70.4774 52.4771 70.3496 52.5407 70.2435 52.6326C69.9648 52.8261 69.7515 53.099 69.6318 53.4156C69.489 53.8171 69.3226 54.2119 69.1647 54.6067C69.1381 54.6797 69.1031 54.7493 69.0605 54.8142C69.0468 54.8305 69.0295 54.8434 69.01 54.8518C68.9904 54.8602 68.9691 54.864 68.9479 54.8627C68.9193 54.8543 68.8924 54.7941 68.8924 54.7556C68.8945 54.6846 68.9041 54.6139 68.921 54.5448C68.9512 54.3859 68.9848 54.2286 69.0117 54.0697C69.047 53.8906 69.0265 53.705 68.9529 53.5377C68.9188 53.4642 68.8682 53.3996 68.8048 53.3488C68.7415 53.298 68.6673 53.2625 68.5879 53.245C68.5085 53.2275 68.4261 53.2285 68.3472 53.248C68.2683 53.2674 68.1949 53.3047 68.1329 53.357C68.0452 53.4429 67.9622 53.5334 67.8842 53.6281C67.6707 53.8706 67.4641 54.1199 67.2439 54.3575C67.1817 54.4221 67.1387 54.5026 67.1196 54.59C67.0078 55.0227 66.8483 55.4419 66.644 55.8397C66.6222 55.8849 66.5953 55.93 66.5701 55.9752C66.4857 56.1541 66.3632 56.3126 66.2111 56.4397C66.0591 56.5668 65.8811 56.6595 65.6895 56.7113C65.3131 56.815 64.9468 56.9489 64.5754 57.0643C64.4958 57.0831 64.4149 57.096 64.3334 57.1028L64.3065 57.0626C64.3419 57.0072 64.383 56.9556 64.4292 56.9087C64.5653 56.7983 64.7048 56.6929 64.8493 56.5942C65.1585 56.3801 65.4761 56.176 65.7836 55.9585C66.0832 55.7492 66.3164 55.4589 66.4558 55.122C66.481 55.0584 66.4978 55.0032 66.5281 54.9028Z" fill="white"/>
<path d="M36.5542 72.911C36.6004 72.8009 36.6868 72.7104 36.7976 72.656C37.0526 72.4976 37.3077 72.3392 37.5677 72.1966C38.2845 71.7861 38.8592 71.1854 39.2214 70.4685C39.3347 70.2547 39.4414 70.0377 39.5548 69.827C39.6131 69.7247 39.6777 69.6258 39.7482 69.5308C39.7566 69.5136 39.7685 69.4982 39.7832 69.4854C39.7979 69.4727 39.8152 69.4629 39.834 69.4565C39.8527 69.4502 39.8727 69.4475 39.8926 69.4485C39.9125 69.4496 39.9319 69.4544 39.9499 69.4627C39.9451 69.5297 39.9356 69.5964 39.9215 69.6622C39.8798 69.8111 39.8265 69.9553 39.7848 70.1026C39.7434 70.2576 39.7432 70.42 39.7842 70.5751C39.8253 70.7302 39.9062 70.8732 40.0199 70.9912C40.1157 71.1006 40.2461 71.1778 40.3916 71.2114C40.6216 71.2771 40.8668 71.2771 41.0967 71.2114C41.2751 71.1591 41.3568 71.0657 41.3568 70.9326C41.3506 70.8562 41.3209 70.7831 41.2714 70.7226C41.2219 70.662 41.1548 70.6167 41.0784 70.592C40.9769 70.5777 40.8742 70.573 40.7717 70.5778C40.71 70.5778 40.6467 70.5778 40.5633 70.5889C40.5696 70.5424 40.5831 70.497 40.6033 70.4542C40.6738 70.3311 40.7601 70.2167 40.86 70.1137C41.0329 69.9516 41.2409 69.8274 41.4695 69.7497C41.6981 69.672 41.9418 69.6427 42.1836 69.6638H42.2403C42.6654 69.724 42.8504 70.0123 42.7004 70.3956C42.6466 70.5136 42.5854 70.6284 42.517 70.7394C42.492 70.7869 42.467 70.8344 42.4353 70.8978C42.5692 70.9281 42.7091 70.9237 42.8405 70.8849C42.9719 70.8462 43.0899 70.7746 43.1822 70.6776C43.3865 70.481 43.56 70.2575 43.6973 70.0139C43.8308 69.7413 44.0136 69.4931 44.2374 69.2805C44.4905 69.0804 44.7034 68.8383 44.8658 68.5661C44.8742 68.5519 44.8925 68.544 44.9192 68.5234C45.1417 68.7184 45.3243 68.9509 45.4576 69.2092C45.4992 69.3098 45.5147 69.4185 45.5026 69.526C45.4754 69.7407 45.3719 69.9402 45.2092 70.0915C45.1462 70.1576 45.0662 70.207 44.9771 70.2347C44.8879 70.2625 44.7927 70.2677 44.7008 70.2499L44.4341 70.2056C44.3454 70.1876 44.2533 70.1928 44.1676 70.2207C44.0819 70.2486 44.0057 70.2981 43.9473 70.364C43.8273 70.4923 43.7223 70.6316 43.6056 70.7615C43.4089 70.9801 43.2105 71.1971 43.0055 71.4078C42.9094 71.5041 42.7888 71.5752 42.6553 71.614C42.5218 71.6529 42.38 71.6582 42.2436 71.6296L42.1486 71.6137C42.0866 71.5994 42.0214 71.6033 41.9618 71.6251C41.9023 71.6469 41.8511 71.6855 41.8152 71.7357C41.6048 71.9927 41.3554 72.2185 41.0751 72.4057C40.8399 72.5708 40.5556 72.6606 40.2633 72.6623C40.0893 72.6703 39.9162 72.6334 39.7625 72.5556C39.6087 72.4778 39.4799 72.362 39.3897 72.2204C39.2822 72.0309 39.1848 71.8363 39.098 71.6375C39.0721 71.6594 39.0482 71.6832 39.0263 71.7088L38.708 72.1475C38.5525 72.3764 38.316 72.545 38.0412 72.6227C37.6194 72.732 37.191 72.8175 36.7659 72.911C36.6955 72.9175 36.6246 72.9175 36.5542 72.911Z" fill="white"/>
<path d="M46.1946 49.8067C46.206 49.9092 46.2113 50.0124 46.2105 50.1156C46.1398 51.0374 46.0667 51.9568 45.9912 52.8737C45.9558 53.2911 45.9275 53.7103 45.8586 54.1222C45.757 54.7748 45.5315 55.3998 45.1953 55.9609C45.1812 55.9848 45.1723 56.0105 45.1511 56.0528C45.426 56.1272 45.7174 56.0979 45.9735 55.9701C46.2536 55.8441 46.4948 55.64 46.6702 55.3804C46.8456 55.1208 46.9485 54.8158 46.9675 54.4991C47.0117 53.8666 47.0648 53.2359 47.0772 52.6034C47.1105 51.5345 47.3461 50.483 47.7705 49.5088C47.8129 49.4077 47.8589 49.3084 47.9085 49.1963C48.0004 49.2661 47.9721 49.3397 47.9668 49.404C47.9297 49.8086 47.8802 50.2112 47.8536 50.6139C47.8076 51.2814 47.767 51.9488 47.7404 52.6163C47.7382 52.7798 47.7646 52.9424 47.8182 53.0962C47.8655 53.254 47.9571 53.3936 48.0813 53.4968C48.2055 53.6001 48.3566 53.6622 48.5151 53.6754C48.6977 53.7111 48.886 53.6996 49.0633 53.6418C49.2407 53.5841 49.4017 53.482 49.5321 53.3444C49.6028 53.2672 49.6877 53.2047 49.7638 53.1329C49.8283 53.0642 49.9086 53.0137 49.9971 52.9864C50.0857 52.959 50.1795 52.9557 50.2696 52.9767C50.466 53.0171 50.5332 52.9675 50.6234 52.7726C50.6782 52.6586 50.7189 52.5372 50.7719 52.4214C50.8445 52.2651 50.871 52.254 51.0266 52.2927C51.3078 52.3607 51.3804 52.3221 51.4971 52.0426C51.5413 51.9378 51.5714 51.8275 51.6156 51.7227C51.6408 51.6714 51.6698 51.6222 51.7023 51.5756L51.7447 51.5884C51.7585 51.632 51.768 51.677 51.773 51.7227C51.777 51.9864 51.7288 52.2481 51.6314 52.4917C51.5341 52.7352 51.3896 52.9554 51.207 53.1385C51.1423 53.2123 51.059 53.2658 50.9665 53.2929C50.9109 53.3079 50.8587 53.3341 50.8129 53.3701C50.7671 53.4061 50.7285 53.4511 50.6994 53.5025C50.6428 53.5914 50.5789 53.6751 50.5084 53.7526C50.4547 53.822 50.3831 53.8741 50.302 53.9028C50.2209 53.9314 50.1336 53.9355 50.0503 53.9144C49.9461 53.8875 49.8366 53.892 49.7348 53.9275C49.633 53.963 49.543 54.028 49.4755 54.1148C49.3411 54.2748 49.2155 54.4439 49.0793 54.6039C48.9652 54.7452 48.8417 54.8779 48.7097 55.0011C48.533 55.1565 48.3079 55.2397 48.0766 55.2353C47.8452 55.2309 47.6232 55.1392 47.4521 54.9772C47.4324 54.9613 47.411 54.9478 47.3885 54.9367C47.3407 55.0728 47.2947 55.2033 47.247 55.3339C47.0687 55.8358 46.797 56.2963 46.4475 56.689C46.3398 56.8188 46.2065 56.9229 46.0567 56.9942C45.9068 57.0656 45.7439 57.1026 45.5791 57.1027C45.4059 57.1051 45.2374 57.0439 45.1033 56.9299C44.9671 56.8104 44.8345 56.689 44.7071 56.5621C44.6802 56.5397 44.6578 56.5119 44.6415 56.4802C44.6252 56.4486 44.6153 56.4138 44.6123 56.378C44.6093 56.3423 44.6133 56.3062 44.6242 56.2721C44.635 56.238 44.6524 56.2066 44.6753 56.1797C44.6966 56.1434 44.7215 56.1095 44.7496 56.0786C45.0552 55.7165 45.2264 55.2529 45.2324 54.7712C45.2625 54.3391 45.2873 53.9052 45.282 53.4713C45.2747 52.7222 45.3852 51.9769 45.6092 51.2648C45.7436 50.8327 45.8922 50.4043 46.0372 49.9777C46.0584 49.9134 46.092 49.8545 46.1186 49.7938L46.1946 49.8067Z" fill="white"/>
<path d="M32.4066 69.3798C32.4302 69.4368 32.4397 69.4979 32.4344 69.5588C32.4292 69.6196 32.4093 69.6786 32.3764 69.7312C32.1588 70.1199 31.9897 70.5307 31.8723 70.9557C31.8059 71.191 31.7626 71.4315 31.7429 71.6742C31.7127 71.9281 31.7655 72.1846 31.8942 72.4097C32.0229 72.6348 32.2216 72.818 32.4638 72.9349C32.8249 73.1151 33.2314 73.2 33.64 73.1807C34.1621 73.1688 34.6743 73.0448 35.1372 72.8183C35.5634 72.6241 35.9319 72.3343 36.2098 71.9744C36.4877 71.6145 36.6665 71.1958 36.7302 70.7555C36.7708 70.4587 36.777 70.1586 36.7487 69.8605C36.7 69.1639 36.9167 68.5257 37.2058 67.9001C37.2334 67.838 37.2689 67.7793 37.3116 67.7252C37.3351 67.6969 37.3788 67.6843 37.4494 67.6449C37.4494 67.7378 37.4494 67.8024 37.4494 67.8529C37.4343 68.3256 37.4276 68.7984 37.4024 69.2711C37.3654 70.5946 36.9296 71.8812 36.1454 72.9821C35.7984 73.4783 35.3438 73.9004 34.8112 74.2207C34.3481 74.4978 33.8143 74.6534 33.2653 74.6714C32.1983 74.7061 31.3665 74.1356 31.2085 73.0704C31.1346 72.4076 31.2201 71.7377 31.4589 71.1101C31.6495 70.5597 31.9054 70.0311 32.2218 69.5343C32.2688 69.4775 32.2957 69.394 32.4066 69.3798Z" fill="white"/>
<path d="M27.5849 51.8318C27.5942 51.8904 27.5998 51.9496 27.6017 52.009C27.5866 52.578 27.5782 53.147 27.5513 53.716C27.4657 55.439 26.9901 57.0148 25.9215 58.3531C25.4552 58.9687 24.8176 59.4144 24.0985 59.6276C23.7165 59.7443 23.3146 59.7691 22.9223 59.7003C22.5364 59.6395 22.1791 59.4499 21.9027 59.1593C21.6264 58.8687 21.4455 58.4924 21.3866 58.0855C21.2933 57.46 21.327 56.8207 21.4857 56.2101C21.6806 55.4127 21.9834 54.6492 22.3846 53.9429C22.4288 53.8737 22.4776 53.8079 22.5308 53.7462C22.5673 53.8082 22.5866 53.8797 22.5866 53.9527C22.5866 54.0256 22.5673 54.0972 22.5308 54.1592C22.3981 54.48 22.2603 54.7973 22.1444 55.1252C22.0015 55.5156 21.917 55.927 21.894 56.3448C21.8595 56.6897 21.9418 57.0364 22.1263 57.3235C22.3108 57.6106 22.5856 57.8196 22.9021 57.9135C23.4584 58.0975 24.0547 58.0975 24.6109 57.9135C25.11 57.7876 25.5706 57.5304 25.9499 57.1658C26.3292 56.8013 26.6148 56.3414 26.7801 55.829C26.8694 55.5431 26.9131 55.2436 26.9095 54.9427C26.9095 54.6892 26.9095 54.4357 26.9011 54.1822C26.8831 53.7977 26.9304 53.413 27.0406 53.046C27.1397 52.7269 27.2506 52.4114 27.3632 52.0994C27.3794 52.0405 27.4077 51.986 27.446 51.9398C27.4843 51.8935 27.5317 51.8567 27.5849 51.8318Z" fill="white"/>
<path d="M22.4237 65.9042C22.4279 65.9756 22.4279 66.0472 22.4237 66.1186C22.3676 66.5653 22.3081 67.0119 22.2536 67.4586C22.1703 68.1211 22.0836 68.7852 22.0105 69.4492C21.987 69.6859 22.023 69.9242 22.1159 70.1475C22.167 70.3007 22.2708 70.4364 22.4133 70.536C22.5557 70.6357 22.7298 70.6945 22.9117 70.7043C23.2139 70.7318 23.5192 70.7007 23.8061 70.6133C24.0929 70.5258 24.3542 70.384 24.5714 70.1981C24.6177 70.1703 24.6558 70.1333 24.6824 70.09C24.709 70.0468 24.7235 69.9986 24.7245 69.9494C24.4405 69.9584 24.1599 69.9688 23.8742 69.9718C23.6719 69.9718 23.4678 69.9718 23.2637 69.9718C23.0937 69.9718 23.0495 69.9212 23.1124 69.7753C23.2284 69.5042 23.4133 69.2598 23.6532 69.0606C24.7266 68.1734 25.9501 67.4366 27.2804 66.8765C27.3259 66.8468 27.378 66.8258 27.4333 66.8148C27.4887 66.8037 27.546 66.8029 27.6017 66.8124C27.5785 66.867 27.5512 66.9202 27.5201 66.9717C27.3784 67.1702 27.2339 67.3688 27.0865 67.5673C26.9676 67.7278 26.8005 67.8566 26.6035 67.9395L25.3996 68.4561C24.9173 68.6531 24.4611 68.8958 24.0392 69.1797C23.9024 69.2641 23.7915 69.3765 23.7161 69.5073C23.8181 69.5147 23.8861 69.5251 23.9678 69.5236C24.4023 69.5144 24.8344 69.4645 25.2567 69.3748C25.3324 69.3568 25.4098 69.3454 25.488 69.3405C25.5148 69.3366 25.5424 69.339 25.5678 69.3474C25.5933 69.3557 25.6158 69.3699 25.633 69.3883C25.6503 69.4067 25.6617 69.4288 25.6661 69.4523C25.6705 69.4758 25.6677 69.4999 25.6581 69.5221C25.6307 69.605 25.5832 69.6818 25.5186 69.747C25.2383 70.0297 24.9846 70.332 24.7602 70.6507C24.485 71.0307 24.1481 71.3738 23.7603 71.6691C23.4244 71.9163 22.9967 72.0471 22.558 72.0368C22.3731 72.0423 22.19 72.0036 22.0282 71.9249C21.8664 71.8462 21.7322 71.7305 21.6398 71.5902C21.522 71.4264 21.439 71.2453 21.3949 71.0557C21.3241 70.6685 21.3161 70.2745 21.3711 69.8854C21.4588 68.9865 21.5984 68.092 21.7894 67.2055C21.8041 67.1321 21.8257 67.0599 21.854 66.9896C21.9889 66.671 22.1261 66.3534 22.2655 66.0367C22.2877 65.9876 22.3217 65.9414 22.3506 65.8878L22.4237 65.9042Z" fill="white"/>
<path d="M26.7065 71.9899C26.7754 71.9356 26.8507 71.8852 26.9319 71.8391C27.1859 71.7142 27.4461 71.5946 27.7062 71.4751C27.9664 71.3556 28.245 71.2347 28.5092 71.1098C28.8817 70.931 29.1667 70.6835 29.3287 70.3982C29.3512 70.3601 29.3614 70.3207 29.3901 70.2528C29.2733 70.2759 29.1853 70.2882 29.1156 70.3072C28.9539 70.3432 28.7791 70.344 28.6166 70.3096C28.4541 70.2752 28.3124 70.2072 28.2122 70.1157C28.1684 70.0746 28.1396 70.0273 28.1283 69.9775C28.1169 69.9278 28.1232 69.877 28.1467 69.8291C28.3217 69.4191 28.61 69.0341 28.9968 68.6937C29.043 68.6471 29.1041 68.6079 29.1759 68.5788C29.2477 68.5497 29.3283 68.5315 29.4119 68.5255C29.4955 68.5196 29.5801 68.5259 29.6596 68.5442C29.7391 68.5625 29.8114 68.5922 29.8715 68.6313C29.9916 68.6925 30.0904 68.7701 30.1611 68.859C30.2318 68.9478 30.2728 69.0457 30.2812 69.146C30.3062 69.4351 30.2563 69.725 30.1337 70.003C29.9588 70.4723 29.6666 70.919 29.2692 71.3244C29.1265 71.4767 28.9098 71.5921 28.6547 71.6517C28.1077 71.7726 27.5587 71.8934 27.0159 72.0116C26.9283 72.025 26.8392 72.0336 26.7496 72.0374L26.7065 71.9899Z" fill="white"/>
<path d="M84.897 71.9975C84.9647 71.9336 85.0369 71.8736 85.1132 71.8179C85.3615 71.6587 85.6143 71.505 85.8656 71.3485C86.0011 71.2655 86.1412 71.1866 86.2737 71.0982C86.5499 70.9149 86.7613 70.6646 86.8829 70.3771C86.8911 70.3576 86.8977 70.3376 86.9027 70.3172C86.9027 70.3077 86.9027 70.2968 86.9027 70.2805C86.8463 70.2465 86.7915 70.2805 86.7428 70.2954C86.6538 70.3321 86.5553 70.3464 86.4579 70.3368C86.3605 70.3272 86.2679 70.2941 86.1899 70.241C86.1027 70.1997 86.0357 70.1309 86.0019 70.0479C85.9682 69.965 85.97 69.8738 86.0072 69.792C86.1316 69.4126 86.3279 69.0551 86.5874 68.7349C86.8083 68.4627 87.1205 68.4532 87.3717 68.7063C87.4952 68.8288 87.5683 68.9852 87.5789 69.1498C87.5956 69.4392 87.5575 69.729 87.4662 70.007C87.3375 70.4668 87.1266 70.9051 86.8418 71.305C86.7228 71.4757 86.5407 71.6037 86.327 71.6669C85.9417 71.7812 85.5564 71.8982 85.1696 72.007C85.1277 72.0284 85.0799 72.0389 85.0317 72.0372C84.9835 72.0355 84.9368 72.0218 84.897 71.9975Z" fill="white"/>
<path d="M33.8676 51.8462C33.8711 51.9467 33.8631 52.0472 33.8438 52.1454C33.7298 52.5184 33.6141 52.8933 33.4746 53.2574C33.4222 53.4032 33.3441 53.5354 33.2452 53.6457C33.1463 53.756 33.0286 53.8422 32.8994 53.899C32.7679 53.9566 32.649 54.045 32.5207 54.1134C32.2726 54.2428 32.0759 54.4729 31.9692 54.7587C31.8915 54.9623 31.8107 55.166 31.7363 55.3714C31.6618 55.5769 31.5778 55.813 31.4954 56.0275C31.4157 56.2525 31.2891 56.4521 31.1265 56.6091C30.9639 56.7661 30.7702 56.8757 30.562 56.9286C30.3291 56.9881 30.0866 57.0385 29.8584 57.0836C29.7617 57.1028 29.6631 57.1076 29.5653 57.098C29.5354 57.0972 29.506 57.0896 29.4788 57.0757C29.4516 57.0618 29.4271 57.0418 29.4068 57.0169C29.3624 56.9448 29.429 56.8889 29.4765 56.8475C29.6572 56.6925 29.8394 56.5375 30.0264 56.3915C30.2435 56.2221 30.4669 56.0635 30.6872 55.8977C30.768 55.8364 30.8457 55.7697 30.9249 55.703C31.1859 55.4926 31.3887 55.2019 31.5096 54.865C31.638 54.5045 31.7965 54.1549 31.9438 53.8035C32.0962 53.4577 32.3431 53.1775 32.6474 53.0051C32.7821 52.9221 32.9168 52.8374 33.0563 52.7635C33.2832 52.6521 33.4676 52.452 33.576 52.1994C33.6095 52.1249 33.6476 52.0532 33.6901 51.985C33.7256 51.9315 33.7637 51.8803 33.8042 51.8318L33.8676 51.8462Z" fill="white"/>
<path d="M32.5386 61.7007C32.4919 61.7723 32.4636 61.8214 32.4303 61.8663C32.3487 61.9772 32.2738 62.0923 32.1822 62.1962C31.9824 62.4222 31.8992 62.4264 31.6411 62.2439L31.2698 61.9828C31.2498 61.9737 31.2322 61.9612 31.2182 61.9461C31.2042 61.931 31.194 61.9137 31.1882 61.8951C31.1824 61.8766 31.1812 61.8572 31.1847 61.8383C31.1881 61.8193 31.1961 61.8012 31.2082 61.7849C31.3897 61.5042 31.5645 61.2081 31.7543 60.9259C31.8359 60.8066 31.9208 60.794 32.059 60.881C32.1928 60.9739 32.3201 61.0733 32.4403 61.1786C32.4903 61.2193 32.5319 61.2656 32.5918 61.3189L32.8299 60.9905C32.9049 60.8894 32.9815 60.7898 33.058 60.6887C33.0674 60.6727 33.0807 60.6585 33.0969 60.647C33.1132 60.6355 33.132 60.627 33.1524 60.622C33.1727 60.617 33.1941 60.6156 33.2151 60.6179C33.2361 60.6202 33.2564 60.6262 33.2745 60.6354C33.4186 60.6903 33.5462 60.7717 33.6479 60.8738C33.7497 60.9758 33.8229 61.0958 33.8623 61.2249C33.8778 61.3161 33.864 61.4092 33.8223 61.4944C33.7229 61.7134 33.5684 61.9116 33.3694 62.0755C33.2479 62.1793 33.1879 62.1793 33.0531 62.0895C32.9881 62.046 32.9315 61.9941 32.8682 61.9492C32.765 61.8705 32.6584 61.7919 32.5386 61.7007Z" fill="white"/>
<path d="M12.4023 67.5123C12.2692 67.7224 12.1673 67.9136 12.0431 68.0859C11.9465 68.2195 11.8358 68.3434 11.7128 68.4557C11.692 68.477 11.6668 68.4941 11.6388 68.5057C11.6107 68.5174 11.5804 68.5234 11.5498 68.5234C11.5192 68.5234 11.4889 68.5174 11.4609 68.5057C11.4328 68.4941 11.4076 68.477 11.3869 68.4557C11.1541 68.275 10.9258 68.0901 10.693 67.9115C10.6677 67.8959 10.646 67.8756 10.6293 67.8518C10.6127 67.828 10.6013 67.8012 10.5959 67.773C10.5905 67.7449 10.5912 67.7161 10.598 67.6882C10.6048 67.6603 10.6175 67.6341 10.6353 67.611C10.8681 67.1908 11.092 66.7706 11.3359 66.3651C11.46 66.1549 11.5775 66.1402 11.7793 66.2831C11.9438 66.4144 12.1 66.5547 12.2471 66.7033C12.3202 66.7706 12.3845 66.8462 12.4688 66.9366L12.6262 66.7054L13.0696 66.0205C13.1405 65.9112 13.2425 65.8503 13.3711 65.9133C13.5673 65.9969 13.741 66.1216 13.8789 66.2781C14.0167 66.4347 14.1153 66.6189 14.167 66.8168C14.1837 66.9379 14.1669 67.061 14.1182 67.174C13.9849 67.5191 13.7694 67.8304 13.4886 68.0838C13.3378 68.2288 13.2669 68.2267 13.0895 68.0985C12.9898 68.0208 12.9011 67.9325 12.8057 67.8506L12.4023 67.5123Z" fill="white"/>
<path d="M71.0358 67.5062C70.9563 67.6845 70.8966 67.8377 70.8237 67.9762C70.7445 68.1332 70.6541 68.2807 70.5536 68.4168C70.4459 68.5574 70.373 68.5553 70.2504 68.4315C70.0891 68.272 69.9317 68.1063 69.7781 67.9342C69.6605 67.8041 69.6522 67.7789 69.7235 67.5985C69.8892 67.1788 70.0549 66.7781 70.2371 66.3752C70.3332 66.1653 70.4277 66.1423 70.5818 66.3017C70.7214 66.4568 70.8546 66.6206 70.9811 66.7927C71.0126 66.8305 71.0391 66.8767 71.0806 66.9354C71.1187 66.8662 71.1518 66.8116 71.18 66.7529C71.2976 66.5116 71.4103 66.2661 71.5346 66.029C71.6174 65.8695 71.6787 65.8506 71.8096 65.945C72.0479 66.1103 72.2335 66.375 72.3349 66.6941C72.3788 66.8575 72.3723 67.0359 72.3167 67.1935C72.214 67.5274 72.0558 67.8294 71.8527 68.079C71.7367 68.2259 71.687 68.228 71.5545 68.1C71.4782 68.0244 71.412 67.9363 71.3407 67.8545L71.0358 67.5062Z" fill="white"/>
<path d="M51.3372 67.5114C51.274 67.654 51.2257 67.7778 51.1708 67.891C51.0829 68.0695 50.9851 68.2398 50.878 68.4008C50.7616 68.5623 50.6768 68.5581 50.5453 68.4239C50.4139 68.2896 50.2376 68.1071 50.0862 67.9414C49.9664 67.8092 49.9564 67.7841 50.0263 67.6079C50.1926 67.1883 50.359 66.7876 50.542 66.3849C50.6385 66.1751 50.74 66.1499 50.888 66.3031C51.033 66.4631 51.1713 66.6326 51.3023 66.8107C51.3289 66.8443 51.3538 66.882 51.3921 66.9366C51.427 66.8716 51.4603 66.817 51.4886 66.7604C51.6084 66.5191 51.7198 66.2737 51.8446 66.0367C51.9361 65.8647 51.9927 65.8479 52.1357 65.9549C52.3628 66.1122 52.5393 66.3644 52.6348 66.6681C52.6713 66.7973 52.6782 66.9369 52.6548 67.0708C52.5661 67.4709 52.3882 67.8305 52.1424 68.1071C52.0492 68.2225 51.9893 68.2225 51.8862 68.1218C51.7831 68.0211 51.7198 67.9393 51.6416 67.847L51.3372 67.5114Z" fill="white"/>
<path d="M26.3211 62.1987C26.456 62.0106 26.5776 61.838 26.7042 61.6682C26.8591 61.4606 26.9541 61.4423 27.1756 61.6009C27.707 61.9797 27.697 62.2337 27.3888 62.6393C27.3084 62.7438 27.2175 62.8424 27.1173 62.9339C26.9774 63.0644 26.9174 63.0659 26.7608 62.9536C26.6392 62.8652 26.526 62.7684 26.4077 62.6729C26.366 62.6421 26.3177 62.6168 26.2628 62.5817C26.1861 62.6954 26.1228 62.802 26.0445 62.8989C25.9633 63.0028 25.8713 63.1004 25.7697 63.1907C25.6731 63.2721 25.6031 63.2707 25.4948 63.1992C25.3283 63.0855 25.1617 62.9634 24.9951 62.8469C24.9757 62.8369 24.959 62.8235 24.946 62.8078C24.9329 62.7921 24.9239 62.7742 24.9193 62.7554C24.9148 62.7366 24.9149 62.7172 24.9196 62.6985C24.9244 62.6797 24.9336 62.6619 24.9468 62.6463C25.1234 62.3656 25.2949 62.085 25.4832 61.8043C25.5681 61.6766 25.6498 61.664 25.8013 61.758C25.9293 61.848 26.0511 61.9441 26.1661 62.0457C26.2111 62.0878 26.2544 62.1355 26.3211 62.1987Z" fill="white"/>
<path d="M28.4977 56.2243C28.4954 56.1584 28.4993 56.0924 28.5093 56.0273C28.6814 55.287 28.6843 54.534 28.6699 53.7778C28.6413 53.2985 28.6749 52.8171 28.7697 52.3481C28.8798 51.9038 29.0346 51.4744 29.2312 51.0677C29.2381 51.0446 29.2495 51.0235 29.2645 51.0057C29.2951 50.9848 29.3276 50.9672 29.3614 50.9533C29.3715 50.9898 29.3961 51.0295 29.3918 51.0645C29.3137 51.8477 29.3079 52.6324 29.2934 53.4188C29.2994 53.9473 29.2454 54.4745 29.1328 54.9884C29.0491 55.3779 28.9021 55.7476 28.6988 56.0797C28.6812 56.1223 28.653 56.1585 28.6174 56.1841C28.5818 56.2097 28.5402 56.2237 28.4977 56.2243Z" fill="white"/>
<path d="M34.7637 56.2243C34.763 56.1596 34.7674 56.0949 34.7767 56.031C34.9526 55.2864 34.954 54.5291 34.9382 53.7686C34.9098 53.2904 34.9443 52.8102 35.0405 52.3427C35.1494 51.9033 35.3017 51.4783 35.4945 51.0753C35.5046 51.0547 35.5118 51.0262 35.5277 51.0135C35.5577 50.9904 35.5896 50.9702 35.6228 50.9533C35.6344 50.9897 35.6603 51.0262 35.6589 51.0626C35.6372 51.4412 35.607 51.8183 35.5911 52.197C35.5738 52.6073 35.5695 53.0176 35.5594 53.428C35.5644 53.9486 35.5112 54.4679 35.4008 54.9743C35.3161 55.3627 35.1697 55.7317 34.9684 56.0643C34.9504 56.1086 34.9219 56.1468 34.8859 56.1749C34.8499 56.203 34.8077 56.2201 34.7637 56.2243Z" fill="white"/>
<path d="M81.2843 66.7664C81.3012 66.8171 81.3119 66.87 81.3161 66.9238C81.2295 67.7663 81.2338 68.612 81.2121 69.4561C81.2151 69.9986 81.1411 70.5383 80.9927 71.056C80.9125 71.3602 80.7871 71.648 80.6217 71.908C80.5755 71.9726 80.538 72.0655 80.4211 72.0293C80.4198 71.9707 80.4237 71.9122 80.4326 71.8545C80.6073 71.1222 80.6102 70.3742 80.5943 69.6246C80.5675 69.1569 80.5995 68.6875 80.6896 68.2293C80.7989 67.776 80.9568 67.3383 81.1602 66.9254C81.1967 66.8681 81.2382 66.8148 81.2843 66.7664Z" fill="white"/>
<path d="M52.6717 56.2243C52.6674 56.1747 52.6674 56.1248 52.6717 56.0753C52.7067 55.858 52.7518 55.6424 52.7839 55.4251C52.8582 54.8852 52.8772 54.338 52.8408 53.7935C52.7843 52.8559 52.976 51.9205 53.3932 51.0978C53.4252 51.0312 53.4442 50.9392 53.5637 50.9551C53.5637 51.0106 53.5637 51.0613 53.5637 51.1137C53.5316 51.9144 53.4937 52.7152 53.4675 53.5175C53.4679 54.0325 53.4091 54.5455 53.2926 55.0446C53.2094 55.4077 53.0694 55.7526 52.8787 56.0642C52.8262 56.1403 52.7912 56.2211 52.6717 56.2243Z" fill="white"/>
<path d="M61.7001 57.1028C61.6848 57.0918 61.6345 57.0789 61.6262 57.0476C61.6206 57.022 61.6193 56.995 61.6225 56.9687C61.6256 56.9423 61.633 56.9171 61.6443 56.895C61.7207 56.7858 61.8053 56.6872 61.8968 56.6007C62.1271 56.3891 62.3615 56.185 62.5945 55.9863C62.987 55.6658 63.2976 55.1974 63.4861 54.6418C63.6647 54.1176 63.8419 53.5897 64.0191 53.0655C64.0488 52.9666 64.0857 52.8717 64.1293 52.7822C64.143 52.7587 64.1608 52.7399 64.1812 52.7274C64.2016 52.7149 64.224 52.7091 64.2465 52.7105C64.265 52.7274 64.2801 52.7499 64.2905 52.7762C64.301 52.8024 64.3065 52.8317 64.3065 52.8613C64.302 52.9817 64.2885 53.1013 64.266 53.2181C64.1117 54.0685 63.8973 54.898 63.6256 55.6957C63.6019 55.7674 63.5726 55.8355 63.5475 55.9054C63.4744 56.1209 63.3654 56.312 63.2287 56.4645C63.092 56.617 62.9311 56.727 62.7577 56.7864C62.4452 56.895 62.1298 56.9869 61.8159 57.0862C61.788 57.0954 61.7545 57.0954 61.7001 57.1028Z" fill="white"/>
<path d="M84.897 68.6922C84.849 68.8582 84.8083 69.0241 84.7529 69.1886C84.5616 69.7595 84.3146 70.3177 84.014 70.8581C83.9808 70.9198 83.9401 70.98 83.9032 71.0417C83.8062 71.2283 83.6553 71.3941 83.4628 71.5257C83.2702 71.6573 83.0414 71.7511 82.7949 71.7994C82.3811 71.8831 81.9636 71.9462 81.5461 72.0285C81.511 72.035 81.475 72.038 81.439 72.0373C81.3282 72.0373 81.2838 71.9771 81.3411 71.8993C81.3794 71.8431 81.4308 71.7933 81.4926 71.7524C81.5979 71.6849 81.7124 71.6261 81.8251 71.5659C82.1834 71.3706 82.5455 71.1783 82.902 70.9786C83.2165 70.807 83.4708 70.5745 83.6409 70.3031C83.8773 69.9228 84.1027 69.5366 84.328 69.1504C84.4149 69.0035 84.4888 68.8479 84.5719 68.6966C84.5894 68.6536 84.6183 68.614 84.6568 68.5806C84.7 68.5467 84.7571 68.5264 84.8176 68.5234C84.8416 68.5234 84.8674 68.5924 84.8877 68.632C84.8913 68.6485 84.8913 68.6654 84.8877 68.6819L84.897 68.6922Z" fill="white"/>
<path d="M20.4383 68.7105C20.4189 68.8132 20.3967 68.9483 20.3662 69.079C20.2144 69.6764 20.0254 70.2625 19.8006 70.8335C19.5898 71.387 19.2377 71.7467 18.6748 71.8612C18.428 71.9111 18.184 71.9713 17.9372 72.0271C17.9058 72.0342 17.8737 72.0377 17.8416 72.0374C17.7653 72.0374 17.7334 71.9816 17.7681 71.9111C17.7929 71.8601 17.8268 71.8147 17.8679 71.7775C17.9511 71.7056 18.0398 71.641 18.1272 71.5764C18.3851 71.3914 18.6443 71.2108 18.8994 71.0228C19.1644 70.8358 19.3781 70.578 19.5191 70.2755C19.7118 69.8512 19.8948 69.4225 20.0737 68.9953C20.1208 68.8881 20.1624 68.7765 20.2123 68.6679C20.2258 68.6312 20.246 68.5977 20.2719 68.5695C20.2983 68.5446 20.3468 68.5152 20.3662 68.5255C20.3856 68.5357 20.4161 68.5901 20.4341 68.6268C20.4438 68.6415 20.4383 68.662 20.4383 68.7105Z" fill="white"/>
<path d="M79.5256 68.6901C79.474 68.8664 79.4297 69.0442 79.3707 69.219C79.1748 69.7766 78.9347 70.3237 78.6518 70.857C78.543 71.111 78.3513 71.3373 78.0963 71.5126C77.8413 71.688 77.5323 71.806 77.201 71.8545C76.86 71.9089 76.5189 71.9706 76.1779 72.0278C76.1363 72.0359 76.0934 72.0389 76.0507 72.0367C75.9604 72.0293 75.9198 71.9808 75.9604 71.9177C75.9916 71.867 76.0355 71.822 76.0894 71.7855C76.2037 71.7091 76.3272 71.6385 76.4581 71.5739C76.8268 71.3712 77.1955 71.1728 77.5642 70.9672C77.8589 70.8039 78.0972 70.5841 78.2573 70.3281C78.4933 69.9535 78.7163 69.573 78.9394 69.1925C79.0334 69.0339 79.109 68.8679 79.1993 68.7077C79.2248 68.6539 79.2623 68.6041 79.3099 68.5608C79.3265 68.5473 79.3468 68.537 79.3691 68.5306C79.3915 68.5243 79.4154 68.522 79.439 68.5241C79.4721 68.5344 79.4943 68.5829 79.5109 68.6167C79.5164 68.639 79.5164 68.6619 79.5109 68.6842L79.5256 68.6901Z" fill="white"/>
<path d="M33.8396 69.4019C34.0677 69.5401 34.286 69.6521 34.4846 69.7834C34.6114 69.8616 34.7008 69.9655 34.7405 70.0807C34.7803 70.196 34.7685 70.3171 34.7067 70.4275C34.604 70.6695 34.4144 70.889 34.1562 71.0647C33.9714 71.1849 33.9183 71.1891 33.7275 71.0827C33.5368 70.9762 33.3028 70.8394 33.1003 70.7122C32.943 70.6141 32.9469 70.5947 33.0295 70.4634C33.2517 70.0925 33.5229 69.7371 33.8396 69.4019Z" fill="white"/>
<path d="M23.9964 53.5888C24.214 53.7162 24.4199 53.8256 24.61 53.9475C24.7514 54.0305 24.8508 54.1438 24.8932 54.2702C24.9356 54.3965 24.9188 54.5292 24.8453 54.6483C24.7418 54.8787 24.5585 55.0872 24.3121 55.2549C24.1336 55.3713 24.067 55.3754 23.8827 55.2701C23.6631 55.1455 23.4494 55.0195 23.2397 54.8865C23.1005 54.7979 23.0985 54.7812 23.1809 54.6663C23.4102 54.3477 23.6455 54.0306 23.8807 53.7134C23.9082 53.6816 23.9454 53.6428 23.9964 53.5888Z" fill="white"/>
<path d="M71.4688 59.1297C71.4735 59.0838 71.4818 59.0388 71.4935 58.9958C71.5862 58.7046 71.6778 58.4119 71.7798 58.127C71.8415 57.9588 71.9105 57.9417 72.0155 58.0476C72.1443 58.1796 72.2522 58.3529 72.3316 58.5552C72.3483 58.5962 72.3588 58.6424 72.3623 58.6903C72.3659 58.7382 72.3624 58.7867 72.3522 58.8323C72.2899 59.1312 72.1903 59.4092 72.0588 59.6513C72.0011 59.7603 71.9785 59.7619 71.8982 59.684C71.7787 59.5672 71.6603 59.4458 71.5419 59.3243C71.5183 59.3065 71.4988 59.2785 71.4858 59.2438C71.4728 59.2092 71.4669 59.1695 71.4688 59.1297Z" fill="white"/>
<path d="M85.7922 64.8907C85.7793 64.9432 85.7629 64.9951 85.743 65.0464C85.6205 65.3135 85.4385 65.5626 85.205 65.7831C85.0736 65.9123 85.0285 65.9154 84.8519 65.8282C84.6178 65.713 84.3879 65.5977 84.16 65.4778C83.9957 65.3906 83.9711 65.3423 84.0327 65.2021C84.1872 64.8616 84.3991 64.5375 84.663 64.2381C84.6764 64.2141 84.6967 64.1926 84.7224 64.1753C84.7481 64.158 84.7786 64.1452 84.8116 64.1379C84.8446 64.1306 84.8794 64.1289 84.9133 64.1331C84.9473 64.1372 84.9796 64.147 85.0079 64.1618C85.3351 64.2998 85.5993 64.51 85.7656 64.7645C85.7833 64.8052 85.7923 64.8478 85.7922 64.8907Z" fill="white"/>
<path d="M60.7256 63.1214C60.7204 63.1571 60.7174 63.1929 60.7102 63.2271C60.6502 63.526 60.5514 63.8037 60.4198 64.0437C60.3615 64.1541 60.341 64.1541 60.2602 64.0748C60.1436 63.9597 60.0291 63.8446 59.9156 63.7248C59.8266 63.6315 59.8133 63.5895 59.8481 63.4371C59.9257 63.0969 60.032 62.7733 60.1641 62.4744C60.1706 62.452 60.1803 62.432 60.1924 62.4159C60.2046 62.3997 60.2188 62.3877 60.2343 62.3808C60.2498 62.3738 60.266 62.3721 60.282 62.3756C60.2979 62.3791 60.3132 62.3879 60.3267 62.4013C60.4985 62.5413 60.6353 62.7631 60.7164 63.0327C60.7216 63.0617 60.7247 63.0914 60.7256 63.1214Z" fill="white"/>
<path d="M23.1256 77.1844C23.107 77.2618 23.0769 77.3375 23.0358 77.4097C22.8786 77.6366 22.7174 77.8635 22.5337 78.078C22.4153 78.2147 22.3602 78.2132 22.1847 78.1262C21.9601 78.0143 21.7356 77.9024 21.5172 77.7858C21.2989 77.6692 21.3131 77.6475 21.3744 77.4859C21.5247 77.1518 21.7305 76.8337 21.9867 76.5394C22.0765 76.4322 22.1744 76.4026 22.3071 76.4555C22.6595 76.5939 22.9384 76.8206 23.097 77.0973C23.1118 77.1252 23.1214 77.1545 23.1256 77.1844Z" fill="white"/>
</svg>
