<svg width="28" height="28" viewBox="0 0 28 28" fill="none" xmlns="http://www.w3.org/2000/svg">
    <g id="Frame">
        <g id="Vector">
            <path
                d="M20.9796 21.8455C20.1644 20.7662 19.1097 19.8909 17.8986 19.2886C16.6876 18.6863 15.3532 18.3734 14.0006 18.3747C12.648 18.3734 11.3136 18.6863 10.1025 19.2886C8.89146 19.8909 7.83678 20.7662 7.02159 21.8455M20.9796 21.8455C22.5703 20.4305 23.6922 18.5655 24.1986 16.4976C24.705 14.4297 24.5709 12.2568 23.814 10.2669C23.057 8.277 21.7131 6.56423 19.9604 5.3557C18.2077 4.14718 16.129 3.5 14 3.5C11.871 3.5 9.79234 4.14718 8.03962 5.3557C6.28691 6.56423 4.94297 8.277 4.18604 10.2669C3.42912 12.2568 3.29496 14.4297 3.80137 16.4976C4.30779 18.5655 5.43084 20.4305 7.02159 21.8455M20.9796 21.8455C19.0593 23.5584 16.5738 24.5033 14.0006 24.4997C11.427 24.5036 8.94219 23.5586 7.02159 21.8455M17.5006 11.3747C17.5006 12.3029 17.1318 13.1932 16.4755 13.8495C15.8191 14.5059 14.9288 14.8747 14.0006 14.8747C13.0723 14.8747 12.1821 14.5059 11.5257 13.8495C10.8693 13.1932 10.5006 12.3029 10.5006 11.3747C10.5006 10.4464 10.8693 9.55616 11.5257 8.89978C12.1821 8.2434 13.0723 7.87466 14.0006 7.87466C14.9288 7.87466 15.8191 8.2434 16.4755 8.89978C17.1318 9.55616 17.5006 10.4464 17.5006 11.3747Z"
                fill="white" />
            <path
                d="M20.9796 21.8455C20.1644 20.7662 19.1097 19.8909 17.8986 19.2886C16.6876 18.6863 15.3532 18.3734 14.0006 18.3747C12.648 18.3734 11.3136 18.6863 10.1025 19.2886C8.89146 19.8909 7.83678 20.7662 7.02159 21.8455M20.9796 21.8455C22.5703 20.4305 23.6922 18.5655 24.1986 16.4976C24.705 14.4297 24.5709 12.2568 23.814 10.2669C23.057 8.277 21.7131 6.56423 19.9604 5.3557C18.2077 4.14718 16.129 3.5 14 3.5C11.871 3.5 9.79234 4.14718 8.03962 5.3557C6.28691 6.56423 4.94297 8.277 4.18604 10.2669C3.42912 12.2568 3.29496 14.4297 3.80137 16.4976C4.30779 18.5655 5.43084 20.4305 7.02159 21.8455M20.9796 21.8455C19.0593 23.5584 16.5738 24.5033 14.0006 24.4997C11.427 24.5036 8.94219 23.5586 7.02159 21.8455M17.5006 11.3747C17.5006 12.3029 17.1318 13.1932 16.4755 13.8495C15.8191 14.5059 14.9288 14.8747 14.0006 14.8747C13.0723 14.8747 12.1821 14.5059 11.5257 13.8495C10.8693 13.1932 10.5006 12.3029 10.5006 11.3747C10.5006 10.4464 10.8693 9.55616 11.5257 8.89978C12.1821 8.2434 13.0723 7.87466 14.0006 7.87466C14.9288 7.87466 15.8191 8.2434 16.4755 8.89978C17.1318 9.55616 17.5006 10.4464 17.5006 11.3747Z"
                stroke="#9CA3AF" stroke-width="1.5" stroke-linecap="round" stroke-linejoin="round" />
        </g>
    </g>
</svg>