<svg width="33" height="32" viewBox="0 0 33 32" fill="none" xmlns="http://www.w3.org/2000/svg">
<g id="world">
<path id="Vector" fill-rule="evenodd" clip-rule="evenodd" d="M16.25 3C9.07 3 3.25 8.82 3.25 16C3.25 23.18 9.07 29 16.25 29C23.43 29 29.25 23.18 29.25 16C29.25 8.82 23.43 3 16.25 3ZM11.646 6.00667C9.8907 6.81578 8.37958 8.07311 7.2648 9.65205C6.15003 11.231 5.47097 13.0758 5.296 15.0006C5.12103 16.9255 5.45633 18.8625 6.26813 20.6166C7.07993 22.3706 8.33958 23.8798 9.92022 24.9922C11.5009 26.1045 13.3467 26.7808 15.2718 26.9528C17.197 27.1248 19.1334 26.7865 20.8862 25.9721C22.6391 25.1576 24.1463 23.8956 25.2563 22.3133C26.3662 20.7309 27.0396 18.8841 27.2087 16.9587L26.5953 16.3453C26.367 16.1169 26.177 15.853 26.0327 15.564L24.5927 12.684C24.5535 12.6058 24.4963 12.5381 24.4258 12.4864C24.3553 12.4346 24.2735 12.4004 24.1872 12.3865C24.1008 12.3725 24.0125 12.3793 23.9293 12.4062C23.8461 12.4332 23.7705 12.4795 23.7087 12.5413C23.5696 12.6803 23.3958 12.7795 23.2055 12.8288C23.0151 12.878 22.815 12.8754 22.626 12.8213L20.9287 12.3373C20.6571 12.261 20.3672 12.2839 20.111 12.4019C19.8548 12.5199 19.649 12.7254 19.5305 12.9814C19.4121 13.2374 19.3887 13.5273 19.4646 13.799C19.5405 14.0707 19.7107 14.3064 19.9447 14.464L20.7273 14.984C21.514 15.5107 21.626 16.624 20.9567 17.2933L20.69 17.56C20.4087 17.8427 20.25 18.224 20.25 18.6213V19.168C20.25 19.7133 20.1033 20.2467 19.8233 20.712L18.07 23.6333C17.8201 24.0502 17.4664 24.3952 17.0434 24.6347C16.6205 24.8742 16.1427 25.0001 15.6567 25C15.2836 25 14.9258 24.8518 14.662 24.588C14.3982 24.3242 14.25 23.9664 14.25 23.5933V22.0307C14.25 20.804 13.5033 19.7013 12.3647 19.2453L11.4927 18.8973C10.857 18.6432 10.3274 18.1793 9.99171 17.5827C9.65604 16.986 9.53452 16.2926 9.64733 15.6173L9.65667 15.5613C9.71865 15.1904 9.84981 14.8345 10.0433 14.512L10.1633 14.312C10.4818 13.7817 10.9563 13.3629 11.522 13.1127C12.0877 12.8626 12.7168 12.7934 13.3233 12.9147L14.894 13.2293C15.2636 13.3031 15.6474 13.2349 15.9691 13.0385C16.2908 12.8421 16.5267 12.5318 16.63 12.1693L16.9073 11.196C17.0034 10.8597 16.979 10.5005 16.8383 10.1803C16.6975 9.86017 16.4494 9.59925 16.1367 9.44267L15.25 9L15.1287 9.12133C14.8501 9.39991 14.5194 9.62089 14.1554 9.77165C13.7914 9.92241 13.4013 10 13.0073 10H12.7673C12.4353 10 12.118 10.1333 11.8847 10.3653C11.6708 10.5811 11.3853 10.711 11.0821 10.7304C10.7789 10.7497 10.4792 10.6572 10.2396 10.4704C10 10.2836 9.8373 10.0154 9.78221 9.71666C9.72712 9.4179 9.7835 9.10931 9.94067 8.84933L11.646 6.00667Z" fill="#254A72"/>
</g>
</svg>
